<mxfile host="app.diagrams.net" modified="2023-06-08T20:49:09.158Z" agent="Mozilla/5.0 (Windows NT 10.0; Win64; x64) AppleWebKit/537.36 (KHTML, like Gecko) Chrome/114.0.0.0 Safari/537.36 Edg/114.0.1823.41" etag="xlradT_E9JyF08EwaAdM" version="21.3.8" type="github" pages="2">
  <diagram name="Page-1" id="RnbOs2od9LWyhHd0b_NQ">
    <mxGraphModel dx="3800" dy="1238" grid="1" gridSize="10" guides="1" tooltips="1" connect="1" arrows="1" fold="1" page="1" pageScale="1" pageWidth="850" pageHeight="1100" math="0" shadow="0">
      <root>
        <mxCell id="0" />
        <mxCell id="1" parent="0" />
        <mxCell id="MsqOn4zYzABH56GJ3uZA-58" value="NO" style="text;strokeColor=none;align=center;fillColor=none;html=1;verticalAlign=middle;whiteSpace=wrap;rounded=0;fontSize=9;" vertex="1" parent="1">
          <mxGeometry x="-860" y="644.75" width="60" height="30" as="geometry" />
        </mxCell>
        <mxCell id="gWx_gt3MSwIJaAfkZpsO-1" value="" style="ellipse;whiteSpace=wrap;html=1;shadow=0;" vertex="1" parent="1">
          <mxGeometry x="-42.5" y="20" width="85" height="40" as="geometry" />
        </mxCell>
        <mxCell id="gWx_gt3MSwIJaAfkZpsO-2" value="" style="rounded=0;whiteSpace=wrap;html=1;shadow=0;" vertex="1" parent="1">
          <mxGeometry x="-59" y="78" width="120" height="40" as="geometry" />
        </mxCell>
        <mxCell id="MsqOn4zYzABH56GJ3uZA-190" value="" style="rounded=0;whiteSpace=wrap;html=1;shadow=0;" vertex="1" parent="1">
          <mxGeometry x="-61.53999999999995" y="418" width="120" height="40" as="geometry" />
        </mxCell>
        <mxCell id="MsqOn4zYzABH56GJ3uZA-191" value="" style="rounded=0;whiteSpace=wrap;html=1;" vertex="1" parent="1">
          <mxGeometry x="-41.53999999999995" y="856" width="80" height="40" as="geometry" />
        </mxCell>
        <mxCell id="MsqOn4zYzABH56GJ3uZA-192" value="Peminjaman DRM" style="text;strokeColor=none;align=center;fillColor=none;html=1;verticalAlign=middle;whiteSpace=wrap;rounded=0;" vertex="1" parent="1">
          <mxGeometry x="-46.53999999999995" y="418" width="90" height="40" as="geometry" />
        </mxCell>
        <mxCell id="MsqOn4zYzABH56GJ3uZA-193" style="edgeStyle=none;rounded=0;orthogonalLoop=1;jettySize=auto;html=1;exitX=0.5;exitY=1;exitDx=0;exitDy=0;entryX=0.5;entryY=0;entryDx=0;entryDy=0;" edge="1" parent="1" source="MsqOn4zYzABH56GJ3uZA-194" target="MsqOn4zYzABH56GJ3uZA-195">
          <mxGeometry relative="1" as="geometry" />
        </mxCell>
        <mxCell id="MsqOn4zYzABH56GJ3uZA-194" value="" style="rhombus;whiteSpace=wrap;html=1;" vertex="1" parent="1">
          <mxGeometry x="-41.53999999999995" y="478" width="80" height="40" as="geometry" />
        </mxCell>
        <mxCell id="MsqOn4zYzABH56GJ3uZA-195" value="" style="rounded=0;whiteSpace=wrap;html=1;" vertex="1" parent="1">
          <mxGeometry x="-41.53999999999995" y="538" width="80" height="40" as="geometry" />
        </mxCell>
        <mxCell id="MsqOn4zYzABH56GJ3uZA-196" value="" style="rounded=0;whiteSpace=wrap;html=1;" vertex="1" parent="1">
          <mxGeometry x="58.46000000000005" y="538" width="80" height="40" as="geometry" />
        </mxCell>
        <mxCell id="MsqOn4zYzABH56GJ3uZA-197" value="" style="rounded=0;whiteSpace=wrap;html=1;" vertex="1" parent="1">
          <mxGeometry x="-141.53999999999994" y="538" width="80" height="40" as="geometry" />
        </mxCell>
        <mxCell id="MsqOn4zYzABH56GJ3uZA-198" value="" style="rounded=0;whiteSpace=wrap;html=1;" vertex="1" parent="1">
          <mxGeometry x="-41.53999999999995" y="598" width="80" height="20" as="geometry" />
        </mxCell>
        <mxCell id="MsqOn4zYzABH56GJ3uZA-199" value="" style="rounded=0;whiteSpace=wrap;html=1;" vertex="1" parent="1">
          <mxGeometry x="-141.53999999999994" y="598" width="80" height="20" as="geometry" />
        </mxCell>
        <mxCell id="MsqOn4zYzABH56GJ3uZA-200" value="" style="rhombus;whiteSpace=wrap;html=1;" vertex="1" parent="1">
          <mxGeometry x="-151.53999999999994" y="633" width="100" height="75" as="geometry" />
        </mxCell>
        <mxCell id="MsqOn4zYzABH56GJ3uZA-201" value="Tambah Data" style="text;strokeColor=none;align=center;fillColor=none;html=1;verticalAlign=middle;whiteSpace=wrap;rounded=0;" vertex="1" parent="1">
          <mxGeometry x="-131.53999999999994" y="543" width="60" height="30" as="geometry" />
        </mxCell>
        <mxCell id="MsqOn4zYzABH56GJ3uZA-202" value="Edit Data" style="text;strokeColor=none;align=center;fillColor=none;html=1;verticalAlign=middle;whiteSpace=wrap;rounded=0;" vertex="1" parent="1">
          <mxGeometry x="-31.539999999999946" y="543" width="60" height="30" as="geometry" />
        </mxCell>
        <mxCell id="MsqOn4zYzABH56GJ3uZA-203" value="Hapus Data" style="text;strokeColor=none;align=center;fillColor=none;html=1;verticalAlign=middle;whiteSpace=wrap;rounded=0;" vertex="1" parent="1">
          <mxGeometry x="68.46000000000005" y="543" width="60" height="30" as="geometry" />
        </mxCell>
        <mxCell id="MsqOn4zYzABH56GJ3uZA-204" value="Simpan" style="text;strokeColor=none;align=center;fillColor=none;html=1;verticalAlign=middle;whiteSpace=wrap;rounded=0;" vertex="1" parent="1">
          <mxGeometry x="-131.53999999999994" y="598" width="60" height="20" as="geometry" />
        </mxCell>
        <mxCell id="MsqOn4zYzABH56GJ3uZA-205" value="Simpan" style="text;strokeColor=none;align=center;fillColor=none;html=1;verticalAlign=middle;whiteSpace=wrap;rounded=0;" vertex="1" parent="1">
          <mxGeometry x="-31.539999999999946" y="598" width="60" height="20" as="geometry" />
        </mxCell>
        <mxCell id="MsqOn4zYzABH56GJ3uZA-206" value="Data Sudah ada / Data Masih Kosong&amp;nbsp;" style="text;strokeColor=none;align=center;fillColor=none;html=1;verticalAlign=middle;whiteSpace=wrap;rounded=0;fontSize=9;" vertex="1" parent="1">
          <mxGeometry x="-141.53999999999994" y="658" width="80" height="40" as="geometry" />
        </mxCell>
        <mxCell id="MsqOn4zYzABH56GJ3uZA-207" value="" style="endArrow=none;html=1;rounded=0;entryX=1;entryY=0.5;entryDx=0;entryDy=0;" edge="1" parent="1" target="MsqOn4zYzABH56GJ3uZA-194">
          <mxGeometry width="50" height="50" relative="1" as="geometry">
            <mxPoint x="98.46000000000005" y="498" as="sourcePoint" />
            <mxPoint x="128.46000000000006" y="508" as="targetPoint" />
          </mxGeometry>
        </mxCell>
        <mxCell id="MsqOn4zYzABH56GJ3uZA-208" value="" style="endArrow=none;html=1;rounded=0;" edge="1" parent="1">
          <mxGeometry width="50" height="50" relative="1" as="geometry">
            <mxPoint x="-101.53999999999995" y="498" as="sourcePoint" />
            <mxPoint x="-41.53999999999995" y="498" as="targetPoint" />
          </mxGeometry>
        </mxCell>
        <mxCell id="MsqOn4zYzABH56GJ3uZA-209" value="" style="endArrow=classic;html=1;rounded=0;entryX=0.5;entryY=0;entryDx=0;entryDy=0;" edge="1" parent="1" target="MsqOn4zYzABH56GJ3uZA-197">
          <mxGeometry width="50" height="50" relative="1" as="geometry">
            <mxPoint x="-101.53999999999995" y="498" as="sourcePoint" />
            <mxPoint x="-131.53999999999994" y="518" as="targetPoint" />
          </mxGeometry>
        </mxCell>
        <mxCell id="MsqOn4zYzABH56GJ3uZA-210" value="" style="endArrow=classic;html=1;rounded=0;entryX=0.5;entryY=0;entryDx=0;entryDy=0;" edge="1" parent="1" target="MsqOn4zYzABH56GJ3uZA-196">
          <mxGeometry width="50" height="50" relative="1" as="geometry">
            <mxPoint x="98.46000000000005" y="498" as="sourcePoint" />
            <mxPoint x="108.46000000000005" y="508" as="targetPoint" />
          </mxGeometry>
        </mxCell>
        <mxCell id="MsqOn4zYzABH56GJ3uZA-211" value="" style="endArrow=classic;html=1;rounded=0;exitX=0.5;exitY=1;exitDx=0;exitDy=0;" edge="1" parent="1" source="MsqOn4zYzABH56GJ3uZA-195">
          <mxGeometry width="50" height="50" relative="1" as="geometry">
            <mxPoint x="-41.53999999999995" y="638" as="sourcePoint" />
            <mxPoint x="-1.5399999999999459" y="598" as="targetPoint" />
          </mxGeometry>
        </mxCell>
        <mxCell id="MsqOn4zYzABH56GJ3uZA-212" value="" style="endArrow=classic;html=1;rounded=0;exitX=0.5;exitY=1;exitDx=0;exitDy=0;" edge="1" parent="1" source="MsqOn4zYzABH56GJ3uZA-197">
          <mxGeometry width="50" height="50" relative="1" as="geometry">
            <mxPoint x="-131.53999999999994" y="628" as="sourcePoint" />
            <mxPoint x="-101.53999999999995" y="598" as="targetPoint" />
          </mxGeometry>
        </mxCell>
        <mxCell id="MsqOn4zYzABH56GJ3uZA-213" value="" style="endArrow=classic;html=1;rounded=0;entryX=0.5;entryY=0;entryDx=0;entryDy=0;exitX=0.5;exitY=1;exitDx=0;exitDy=0;" edge="1" parent="1" source="MsqOn4zYzABH56GJ3uZA-204" target="MsqOn4zYzABH56GJ3uZA-200">
          <mxGeometry width="50" height="50" relative="1" as="geometry">
            <mxPoint x="-181.53999999999994" y="678" as="sourcePoint" />
            <mxPoint x="-131.53999999999994" y="628" as="targetPoint" />
          </mxGeometry>
        </mxCell>
        <mxCell id="MsqOn4zYzABH56GJ3uZA-214" value="" style="endArrow=classic;html=1;rounded=0;entryX=0;entryY=0;entryDx=42.5;entryDy=0;entryPerimeter=0;exitX=0.5;exitY=1;exitDx=0;exitDy=0;" edge="1" parent="1" source="MsqOn4zYzABH56GJ3uZA-205" target="MsqOn4zYzABH56GJ3uZA-215">
          <mxGeometry width="50" height="50" relative="1" as="geometry">
            <mxPoint x="-51.53999999999995" y="688" as="sourcePoint" />
            <mxPoint x="-1.5399999999999459" y="638" as="targetPoint" />
          </mxGeometry>
        </mxCell>
        <mxCell id="MsqOn4zYzABH56GJ3uZA-215" value="" style="shape=display;whiteSpace=wrap;html=1;" vertex="1" parent="1">
          <mxGeometry x="-43.53999999999995" y="655.5" width="80" height="30" as="geometry" />
        </mxCell>
        <mxCell id="MsqOn4zYzABH56GJ3uZA-216" value="Data Tersimpan" style="text;strokeColor=none;align=center;fillColor=none;html=1;verticalAlign=middle;whiteSpace=wrap;rounded=0;fontSize=9;" vertex="1" parent="1">
          <mxGeometry x="-41.53999999999995" y="664.25" width="80" height="12.5" as="geometry" />
        </mxCell>
        <mxCell id="MsqOn4zYzABH56GJ3uZA-217" value="" style="endArrow=classic;html=1;rounded=0;entryX=0;entryY=0;entryDx=42.5;entryDy=0;entryPerimeter=0;exitX=0.5;exitY=1;exitDx=0;exitDy=0;" edge="1" parent="1" source="MsqOn4zYzABH56GJ3uZA-200" target="MsqOn4zYzABH56GJ3uZA-218">
          <mxGeometry width="50" height="50" relative="1" as="geometry">
            <mxPoint x="-151.53999999999994" y="838" as="sourcePoint" />
            <mxPoint x="-101.53999999999995" y="788" as="targetPoint" />
          </mxGeometry>
        </mxCell>
        <mxCell id="MsqOn4zYzABH56GJ3uZA-218" value="" style="shape=display;whiteSpace=wrap;html=1;" vertex="1" parent="1">
          <mxGeometry x="-143.53999999999994" y="723" width="80" height="30" as="geometry" />
        </mxCell>
        <mxCell id="MsqOn4zYzABH56GJ3uZA-219" value="Data Tersimpan" style="text;strokeColor=none;align=center;fillColor=none;html=1;verticalAlign=middle;whiteSpace=wrap;rounded=0;fontSize=9;" vertex="1" parent="1">
          <mxGeometry x="-141.53999999999994" y="730.75" width="80" height="12.5" as="geometry" />
        </mxCell>
        <mxCell id="MsqOn4zYzABH56GJ3uZA-220" value="" style="endArrow=classic;html=1;rounded=0;entryX=0.5;entryY=0;entryDx=0;entryDy=0;exitX=0;exitY=0;exitDx=42.5;exitDy=30;exitPerimeter=0;" edge="1" parent="1" source="MsqOn4zYzABH56GJ3uZA-215" target="MsqOn4zYzABH56GJ3uZA-225">
          <mxGeometry width="50" height="50" relative="1" as="geometry">
            <mxPoint x="18.460000000000054" y="748" as="sourcePoint" />
            <mxPoint x="68.46000000000005" y="698" as="targetPoint" />
          </mxGeometry>
        </mxCell>
        <mxCell id="MsqOn4zYzABH56GJ3uZA-221" value="" style="endArrow=none;html=1;rounded=0;entryX=0;entryY=0;entryDx=42.5;entryDy=30;entryPerimeter=0;" edge="1" parent="1" target="MsqOn4zYzABH56GJ3uZA-218">
          <mxGeometry width="50" height="50" relative="1" as="geometry">
            <mxPoint x="-101.53999999999995" y="778" as="sourcePoint" />
            <mxPoint x="-101.53999999999995" y="758" as="targetPoint" />
          </mxGeometry>
        </mxCell>
        <mxCell id="MsqOn4zYzABH56GJ3uZA-222" value="" style="endArrow=none;html=1;rounded=0;" edge="1" parent="1">
          <mxGeometry width="50" height="50" relative="1" as="geometry">
            <mxPoint x="-101.53999999999995" y="778" as="sourcePoint" />
            <mxPoint x="-1.5399999999999459" y="778" as="targetPoint" />
          </mxGeometry>
        </mxCell>
        <mxCell id="MsqOn4zYzABH56GJ3uZA-223" value="" style="endArrow=none;html=1;rounded=0;entryX=0.5;entryY=1;entryDx=0;entryDy=0;" edge="1" parent="1" target="MsqOn4zYzABH56GJ3uZA-196">
          <mxGeometry width="50" height="50" relative="1" as="geometry">
            <mxPoint x="98.46000000000005" y="778" as="sourcePoint" />
            <mxPoint x="108.46000000000005" y="658" as="targetPoint" />
          </mxGeometry>
        </mxCell>
        <mxCell id="MsqOn4zYzABH56GJ3uZA-224" value="" style="endArrow=none;html=1;rounded=0;" edge="1" parent="1">
          <mxGeometry width="50" height="50" relative="1" as="geometry">
            <mxPoint x="-1.5399999999999459" y="778" as="sourcePoint" />
            <mxPoint x="98.46000000000005" y="778" as="targetPoint" />
          </mxGeometry>
        </mxCell>
        <mxCell id="MsqOn4zYzABH56GJ3uZA-225" value="" style="rhombus;whiteSpace=wrap;html=1;" vertex="1" parent="1">
          <mxGeometry x="-41.53999999999995" y="796" width="80" height="40" as="geometry" />
        </mxCell>
        <mxCell id="MsqOn4zYzABH56GJ3uZA-226" value="Lagi?" style="text;strokeColor=none;align=center;fillColor=none;html=1;verticalAlign=middle;whiteSpace=wrap;rounded=0;" vertex="1" parent="1">
          <mxGeometry x="-31.539999999999946" y="806" width="60" height="20" as="geometry" />
        </mxCell>
        <mxCell id="MsqOn4zYzABH56GJ3uZA-227" value="Keluar dari menu" style="text;strokeColor=none;align=center;fillColor=none;html=1;verticalAlign=middle;whiteSpace=wrap;rounded=0;" vertex="1" parent="1">
          <mxGeometry x="-31.539999999999946" y="866" width="60" height="20" as="geometry" />
        </mxCell>
        <mxCell id="MsqOn4zYzABH56GJ3uZA-228" value="" style="endArrow=classic;html=1;rounded=0;entryX=0.5;entryY=0;entryDx=0;entryDy=0;exitX=0.5;exitY=1;exitDx=0;exitDy=0;" edge="1" parent="1" source="MsqOn4zYzABH56GJ3uZA-225" target="MsqOn4zYzABH56GJ3uZA-191">
          <mxGeometry width="50" height="50" relative="1" as="geometry">
            <mxPoint x="-131.53999999999994" y="886" as="sourcePoint" />
            <mxPoint x="-81.53999999999995" y="836" as="targetPoint" />
          </mxGeometry>
        </mxCell>
        <mxCell id="MsqOn4zYzABH56GJ3uZA-229" value="" style="endArrow=none;html=1;rounded=0;exitX=1;exitY=0.5;exitDx=0;exitDy=0;" edge="1" parent="1" source="MsqOn4zYzABH56GJ3uZA-225">
          <mxGeometry width="50" height="50" relative="1" as="geometry">
            <mxPoint x="78.46000000000005" y="815.41" as="sourcePoint" />
            <mxPoint x="160" y="816" as="targetPoint" />
          </mxGeometry>
        </mxCell>
        <mxCell id="MsqOn4zYzABH56GJ3uZA-230" value="" style="endArrow=none;html=1;rounded=0;" edge="1" parent="1">
          <mxGeometry width="50" height="50" relative="1" as="geometry">
            <mxPoint x="157.46000000000006" y="818" as="sourcePoint" />
            <mxPoint x="157.46000000000006" y="437" as="targetPoint" />
          </mxGeometry>
        </mxCell>
        <mxCell id="MsqOn4zYzABH56GJ3uZA-232" value="" style="endArrow=none;html=1;rounded=0;exitX=0.5;exitY=0;exitDx=0;exitDy=0;entryX=0.5;entryY=1;entryDx=0;entryDy=0;" edge="1" parent="1" source="MsqOn4zYzABH56GJ3uZA-194" target="MsqOn4zYzABH56GJ3uZA-190">
          <mxGeometry width="50" height="50" relative="1" as="geometry">
            <mxPoint x="-181.53999999999994" y="528" as="sourcePoint" />
            <mxPoint x="-131.53999999999994" y="478" as="targetPoint" />
          </mxGeometry>
        </mxCell>
        <mxCell id="MsqOn4zYzABH56GJ3uZA-233" value="" style="endArrow=none;html=1;rounded=0;" edge="1" parent="1">
          <mxGeometry width="50" height="50" relative="1" as="geometry">
            <mxPoint x="-162.53999999999994" y="671" as="sourcePoint" />
            <mxPoint x="-162.53999999999994" y="558" as="targetPoint" />
          </mxGeometry>
        </mxCell>
        <mxCell id="MsqOn4zYzABH56GJ3uZA-235" value="" style="endArrow=none;html=1;rounded=0;entryX=0;entryY=0.5;entryDx=0;entryDy=0;" edge="1" parent="1" target="MsqOn4zYzABH56GJ3uZA-200">
          <mxGeometry width="50" height="50" relative="1" as="geometry">
            <mxPoint x="-163" y="671" as="sourcePoint" />
            <mxPoint x="-161.53999999999994" y="678" as="targetPoint" />
          </mxGeometry>
        </mxCell>
        <mxCell id="MsqOn4zYzABH56GJ3uZA-236" value="NO" style="text;strokeColor=none;align=center;fillColor=none;html=1;verticalAlign=middle;whiteSpace=wrap;rounded=0;fontSize=9;" vertex="1" parent="1">
          <mxGeometry x="88.46000000000005" y="788" width="60" height="30" as="geometry" />
        </mxCell>
        <mxCell id="MsqOn4zYzABH56GJ3uZA-237" value="YES" style="text;strokeColor=none;align=center;fillColor=none;html=1;verticalAlign=middle;whiteSpace=wrap;rounded=0;fontSize=9;" vertex="1" parent="1">
          <mxGeometry x="-16.539999999999946" y="826" width="60" height="30" as="geometry" />
        </mxCell>
        <mxCell id="MsqOn4zYzABH56GJ3uZA-238" value="YES" style="text;strokeColor=none;align=center;fillColor=none;html=1;verticalAlign=middle;whiteSpace=wrap;rounded=0;fontSize=9;" vertex="1" parent="1">
          <mxGeometry x="-0.5399999999999459" y="778" width="30" height="22" as="geometry" />
        </mxCell>
        <mxCell id="MsqOn4zYzABH56GJ3uZA-239" value="YES" style="text;strokeColor=none;align=center;fillColor=none;html=1;verticalAlign=middle;whiteSpace=wrap;rounded=0;fontSize=9;" vertex="1" parent="1">
          <mxGeometry x="-0.5399999999999459" y="721.25" width="30" height="22" as="geometry" />
        </mxCell>
        <mxCell id="MsqOn4zYzABH56GJ3uZA-240" value="YES" style="text;strokeColor=none;align=center;fillColor=none;html=1;verticalAlign=middle;whiteSpace=wrap;rounded=0;fontSize=9;" vertex="1" parent="1">
          <mxGeometry x="98.46000000000005" y="659.5" width="30" height="22" as="geometry" />
        </mxCell>
        <mxCell id="MsqOn4zYzABH56GJ3uZA-241" value="YES" style="text;strokeColor=none;align=center;fillColor=none;html=1;verticalAlign=middle;whiteSpace=wrap;rounded=0;fontSize=9;" vertex="1" parent="1">
          <mxGeometry x="-101.53999999999995" y="756" width="30" height="22" as="geometry" />
        </mxCell>
        <mxCell id="MsqOn4zYzABH56GJ3uZA-242" value="YES" style="text;strokeColor=none;align=center;fillColor=none;html=1;verticalAlign=middle;whiteSpace=wrap;rounded=0;fontSize=9;" vertex="1" parent="1">
          <mxGeometry x="-98.53999999999995" y="703" width="30" height="22" as="geometry" />
        </mxCell>
        <mxCell id="MsqOn4zYzABH56GJ3uZA-243" value="YES" style="text;strokeColor=none;align=center;fillColor=none;html=1;verticalAlign=middle;whiteSpace=wrap;rounded=0;fontSize=9;" vertex="1" parent="1">
          <mxGeometry x="-1.5399999999999459" y="624.75" width="30" height="22" as="geometry" />
        </mxCell>
        <mxCell id="MsqOn4zYzABH56GJ3uZA-244" value="YES" style="text;strokeColor=none;align=center;fillColor=none;html=1;verticalAlign=middle;whiteSpace=wrap;rounded=0;fontSize=9;" vertex="1" parent="1">
          <mxGeometry x="-96.53999999999995" y="618" width="30" height="22" as="geometry" />
        </mxCell>
        <mxCell id="MsqOn4zYzABH56GJ3uZA-245" value="YES" style="text;strokeColor=none;align=center;fillColor=none;html=1;verticalAlign=middle;whiteSpace=wrap;rounded=0;fontSize=9;" vertex="1" parent="1">
          <mxGeometry x="-96.53999999999995" y="578" width="30" height="22" as="geometry" />
        </mxCell>
        <mxCell id="MsqOn4zYzABH56GJ3uZA-246" value="YES" style="text;strokeColor=none;align=center;fillColor=none;html=1;verticalAlign=middle;whiteSpace=wrap;rounded=0;fontSize=9;" vertex="1" parent="1">
          <mxGeometry x="-1.5399999999999459" y="578" width="30" height="22" as="geometry" />
        </mxCell>
        <mxCell id="MsqOn4zYzABH56GJ3uZA-247" value="YES" style="text;strokeColor=none;align=center;fillColor=none;html=1;verticalAlign=middle;whiteSpace=wrap;rounded=0;fontSize=9;" vertex="1" parent="1">
          <mxGeometry x="98.46000000000005" y="508" width="30" height="22" as="geometry" />
        </mxCell>
        <mxCell id="MsqOn4zYzABH56GJ3uZA-248" value="YES" style="text;strokeColor=none;align=center;fillColor=none;html=1;verticalAlign=middle;whiteSpace=wrap;rounded=0;fontSize=9;" vertex="1" parent="1">
          <mxGeometry x="-0.5399999999999459" y="517" width="30" height="22" as="geometry" />
        </mxCell>
        <mxCell id="MsqOn4zYzABH56GJ3uZA-249" value="YES" style="text;strokeColor=none;align=center;fillColor=none;html=1;verticalAlign=middle;whiteSpace=wrap;rounded=0;fontSize=9;" vertex="1" parent="1">
          <mxGeometry x="-99.53999999999995" y="508" width="30" height="22" as="geometry" />
        </mxCell>
        <mxCell id="gWx_gt3MSwIJaAfkZpsO-8" value="" style="rounded=0;whiteSpace=wrap;html=1;shadow=0;" vertex="1" parent="1">
          <mxGeometry x="-730" y="416" width="120" height="40" as="geometry" />
        </mxCell>
        <mxCell id="MsqOn4zYzABH56GJ3uZA-14" value="" style="rounded=0;whiteSpace=wrap;html=1;" vertex="1" parent="1">
          <mxGeometry x="-710" y="854" width="80" height="40" as="geometry" />
        </mxCell>
        <mxCell id="MsqOn4zYzABH56GJ3uZA-53" value="Data Pegawai" style="text;strokeColor=none;align=center;fillColor=none;html=1;verticalAlign=middle;whiteSpace=wrap;rounded=0;" vertex="1" parent="1">
          <mxGeometry x="-715" y="416" width="90" height="40" as="geometry" />
        </mxCell>
        <mxCell id="MsqOn4zYzABH56GJ3uZA-26" style="edgeStyle=none;rounded=0;orthogonalLoop=1;jettySize=auto;html=1;exitX=0.5;exitY=1;exitDx=0;exitDy=0;entryX=0.5;entryY=0;entryDx=0;entryDy=0;" edge="1" parent="1" source="MsqOn4zYzABH56GJ3uZA-3" target="MsqOn4zYzABH56GJ3uZA-4">
          <mxGeometry relative="1" as="geometry" />
        </mxCell>
        <mxCell id="MsqOn4zYzABH56GJ3uZA-3" value="" style="rhombus;whiteSpace=wrap;html=1;" vertex="1" parent="1">
          <mxGeometry x="-710" y="476" width="80" height="40" as="geometry" />
        </mxCell>
        <mxCell id="MsqOn4zYzABH56GJ3uZA-4" value="" style="rounded=0;whiteSpace=wrap;html=1;" vertex="1" parent="1">
          <mxGeometry x="-710" y="536" width="80" height="40" as="geometry" />
        </mxCell>
        <mxCell id="MsqOn4zYzABH56GJ3uZA-6" value="" style="rounded=0;whiteSpace=wrap;html=1;" vertex="1" parent="1">
          <mxGeometry x="-610" y="536" width="80" height="40" as="geometry" />
        </mxCell>
        <mxCell id="MsqOn4zYzABH56GJ3uZA-7" value="" style="rounded=0;whiteSpace=wrap;html=1;" vertex="1" parent="1">
          <mxGeometry x="-810" y="536" width="80" height="40" as="geometry" />
        </mxCell>
        <mxCell id="MsqOn4zYzABH56GJ3uZA-8" value="" style="rounded=0;whiteSpace=wrap;html=1;" vertex="1" parent="1">
          <mxGeometry x="-710" y="596" width="80" height="20" as="geometry" />
        </mxCell>
        <mxCell id="MsqOn4zYzABH56GJ3uZA-9" value="" style="rounded=0;whiteSpace=wrap;html=1;" vertex="1" parent="1">
          <mxGeometry x="-810" y="596" width="80" height="20" as="geometry" />
        </mxCell>
        <mxCell id="MsqOn4zYzABH56GJ3uZA-10" value="" style="rhombus;whiteSpace=wrap;html=1;" vertex="1" parent="1">
          <mxGeometry x="-820" y="631" width="100" height="75" as="geometry" />
        </mxCell>
        <mxCell id="MsqOn4zYzABH56GJ3uZA-15" value="Tambah Data" style="text;strokeColor=none;align=center;fillColor=none;html=1;verticalAlign=middle;whiteSpace=wrap;rounded=0;" vertex="1" parent="1">
          <mxGeometry x="-800" y="541" width="60" height="30" as="geometry" />
        </mxCell>
        <mxCell id="MsqOn4zYzABH56GJ3uZA-16" value="Edit Data" style="text;strokeColor=none;align=center;fillColor=none;html=1;verticalAlign=middle;whiteSpace=wrap;rounded=0;" vertex="1" parent="1">
          <mxGeometry x="-700" y="541" width="60" height="30" as="geometry" />
        </mxCell>
        <mxCell id="MsqOn4zYzABH56GJ3uZA-17" value="Hapus Data" style="text;strokeColor=none;align=center;fillColor=none;html=1;verticalAlign=middle;whiteSpace=wrap;rounded=0;" vertex="1" parent="1">
          <mxGeometry x="-600" y="541" width="60" height="30" as="geometry" />
        </mxCell>
        <mxCell id="MsqOn4zYzABH56GJ3uZA-18" value="Simpan" style="text;strokeColor=none;align=center;fillColor=none;html=1;verticalAlign=middle;whiteSpace=wrap;rounded=0;" vertex="1" parent="1">
          <mxGeometry x="-800" y="596" width="60" height="20" as="geometry" />
        </mxCell>
        <mxCell id="MsqOn4zYzABH56GJ3uZA-19" value="Simpan" style="text;strokeColor=none;align=center;fillColor=none;html=1;verticalAlign=middle;whiteSpace=wrap;rounded=0;" vertex="1" parent="1">
          <mxGeometry x="-700" y="596" width="60" height="20" as="geometry" />
        </mxCell>
        <mxCell id="MsqOn4zYzABH56GJ3uZA-20" value="Data Sudah ada / Data Masih Kosong&amp;nbsp;" style="text;strokeColor=none;align=center;fillColor=none;html=1;verticalAlign=middle;whiteSpace=wrap;rounded=0;fontSize=9;" vertex="1" parent="1">
          <mxGeometry x="-810" y="656" width="80" height="40" as="geometry" />
        </mxCell>
        <mxCell id="MsqOn4zYzABH56GJ3uZA-29" value="" style="endArrow=none;html=1;rounded=0;entryX=1;entryY=0.5;entryDx=0;entryDy=0;" edge="1" parent="1" target="MsqOn4zYzABH56GJ3uZA-3">
          <mxGeometry width="50" height="50" relative="1" as="geometry">
            <mxPoint x="-570" y="496" as="sourcePoint" />
            <mxPoint x="-540" y="506" as="targetPoint" />
          </mxGeometry>
        </mxCell>
        <mxCell id="MsqOn4zYzABH56GJ3uZA-32" value="" style="endArrow=none;html=1;rounded=0;" edge="1" parent="1">
          <mxGeometry width="50" height="50" relative="1" as="geometry">
            <mxPoint x="-770" y="496" as="sourcePoint" />
            <mxPoint x="-710" y="496" as="targetPoint" />
          </mxGeometry>
        </mxCell>
        <mxCell id="MsqOn4zYzABH56GJ3uZA-33" value="" style="endArrow=classic;html=1;rounded=0;entryX=0.5;entryY=0;entryDx=0;entryDy=0;" edge="1" parent="1" target="MsqOn4zYzABH56GJ3uZA-7">
          <mxGeometry width="50" height="50" relative="1" as="geometry">
            <mxPoint x="-770" y="496" as="sourcePoint" />
            <mxPoint x="-800" y="516" as="targetPoint" />
          </mxGeometry>
        </mxCell>
        <mxCell id="MsqOn4zYzABH56GJ3uZA-34" value="" style="endArrow=classic;html=1;rounded=0;entryX=0.5;entryY=0;entryDx=0;entryDy=0;" edge="1" parent="1" target="MsqOn4zYzABH56GJ3uZA-6">
          <mxGeometry width="50" height="50" relative="1" as="geometry">
            <mxPoint x="-570" y="496" as="sourcePoint" />
            <mxPoint x="-560" y="506" as="targetPoint" />
          </mxGeometry>
        </mxCell>
        <mxCell id="MsqOn4zYzABH56GJ3uZA-36" value="" style="endArrow=classic;html=1;rounded=0;exitX=0.5;exitY=1;exitDx=0;exitDy=0;" edge="1" parent="1" source="MsqOn4zYzABH56GJ3uZA-4">
          <mxGeometry width="50" height="50" relative="1" as="geometry">
            <mxPoint x="-710" y="636" as="sourcePoint" />
            <mxPoint x="-670" y="596" as="targetPoint" />
          </mxGeometry>
        </mxCell>
        <mxCell id="MsqOn4zYzABH56GJ3uZA-38" value="" style="endArrow=classic;html=1;rounded=0;exitX=0.5;exitY=1;exitDx=0;exitDy=0;" edge="1" parent="1" source="MsqOn4zYzABH56GJ3uZA-7">
          <mxGeometry width="50" height="50" relative="1" as="geometry">
            <mxPoint x="-800" y="626" as="sourcePoint" />
            <mxPoint x="-770" y="596" as="targetPoint" />
          </mxGeometry>
        </mxCell>
        <mxCell id="MsqOn4zYzABH56GJ3uZA-39" value="" style="endArrow=classic;html=1;rounded=0;entryX=0.5;entryY=0;entryDx=0;entryDy=0;exitX=0.5;exitY=1;exitDx=0;exitDy=0;" edge="1" parent="1" source="MsqOn4zYzABH56GJ3uZA-18" target="MsqOn4zYzABH56GJ3uZA-10">
          <mxGeometry width="50" height="50" relative="1" as="geometry">
            <mxPoint x="-850" y="676" as="sourcePoint" />
            <mxPoint x="-800" y="626" as="targetPoint" />
          </mxGeometry>
        </mxCell>
        <mxCell id="MsqOn4zYzABH56GJ3uZA-40" value="" style="endArrow=classic;html=1;rounded=0;entryX=0;entryY=0;entryDx=42.5;entryDy=0;entryPerimeter=0;exitX=0.5;exitY=1;exitDx=0;exitDy=0;" edge="1" parent="1" source="MsqOn4zYzABH56GJ3uZA-19" target="MsqOn4zYzABH56GJ3uZA-22">
          <mxGeometry width="50" height="50" relative="1" as="geometry">
            <mxPoint x="-720" y="686" as="sourcePoint" />
            <mxPoint x="-670" y="636" as="targetPoint" />
          </mxGeometry>
        </mxCell>
        <mxCell id="MsqOn4zYzABH56GJ3uZA-22" value="" style="shape=display;whiteSpace=wrap;html=1;" vertex="1" parent="1">
          <mxGeometry x="-712" y="653.5" width="80" height="30" as="geometry" />
        </mxCell>
        <mxCell id="MsqOn4zYzABH56GJ3uZA-23" value="Data Tersimpan" style="text;strokeColor=none;align=center;fillColor=none;html=1;verticalAlign=middle;whiteSpace=wrap;rounded=0;fontSize=9;" vertex="1" parent="1">
          <mxGeometry x="-710" y="662.25" width="80" height="12.5" as="geometry" />
        </mxCell>
        <mxCell id="MsqOn4zYzABH56GJ3uZA-41" value="" style="endArrow=classic;html=1;rounded=0;entryX=0;entryY=0;entryDx=42.5;entryDy=0;entryPerimeter=0;exitX=0.5;exitY=1;exitDx=0;exitDy=0;" edge="1" parent="1" source="MsqOn4zYzABH56GJ3uZA-10" target="MsqOn4zYzABH56GJ3uZA-11">
          <mxGeometry width="50" height="50" relative="1" as="geometry">
            <mxPoint x="-820" y="836" as="sourcePoint" />
            <mxPoint x="-770" y="786" as="targetPoint" />
          </mxGeometry>
        </mxCell>
        <mxCell id="MsqOn4zYzABH56GJ3uZA-11" value="" style="shape=display;whiteSpace=wrap;html=1;" vertex="1" parent="1">
          <mxGeometry x="-812" y="721" width="80" height="30" as="geometry" />
        </mxCell>
        <mxCell id="MsqOn4zYzABH56GJ3uZA-21" value="Data Tersimpan" style="text;strokeColor=none;align=center;fillColor=none;html=1;verticalAlign=middle;whiteSpace=wrap;rounded=0;fontSize=9;" vertex="1" parent="1">
          <mxGeometry x="-810" y="728.75" width="80" height="12.5" as="geometry" />
        </mxCell>
        <mxCell id="MsqOn4zYzABH56GJ3uZA-42" value="" style="endArrow=classic;html=1;rounded=0;entryX=0.5;entryY=0;entryDx=0;entryDy=0;exitX=0;exitY=0;exitDx=42.5;exitDy=30;exitPerimeter=0;" edge="1" parent="1" source="MsqOn4zYzABH56GJ3uZA-22" target="MsqOn4zYzABH56GJ3uZA-13">
          <mxGeometry width="50" height="50" relative="1" as="geometry">
            <mxPoint x="-650" y="746" as="sourcePoint" />
            <mxPoint x="-600" y="696" as="targetPoint" />
          </mxGeometry>
        </mxCell>
        <mxCell id="MsqOn4zYzABH56GJ3uZA-44" value="" style="endArrow=none;html=1;rounded=0;entryX=0;entryY=0;entryDx=42.5;entryDy=30;entryPerimeter=0;" edge="1" parent="1" target="MsqOn4zYzABH56GJ3uZA-11">
          <mxGeometry width="50" height="50" relative="1" as="geometry">
            <mxPoint x="-770" y="776" as="sourcePoint" />
            <mxPoint x="-770" y="756" as="targetPoint" />
          </mxGeometry>
        </mxCell>
        <mxCell id="MsqOn4zYzABH56GJ3uZA-45" value="" style="endArrow=none;html=1;rounded=0;" edge="1" parent="1">
          <mxGeometry width="50" height="50" relative="1" as="geometry">
            <mxPoint x="-770" y="776" as="sourcePoint" />
            <mxPoint x="-670" y="776" as="targetPoint" />
          </mxGeometry>
        </mxCell>
        <mxCell id="MsqOn4zYzABH56GJ3uZA-46" value="" style="endArrow=none;html=1;rounded=0;entryX=0.5;entryY=1;entryDx=0;entryDy=0;" edge="1" parent="1" target="MsqOn4zYzABH56GJ3uZA-6">
          <mxGeometry width="50" height="50" relative="1" as="geometry">
            <mxPoint x="-570" y="776" as="sourcePoint" />
            <mxPoint x="-560" y="656" as="targetPoint" />
          </mxGeometry>
        </mxCell>
        <mxCell id="MsqOn4zYzABH56GJ3uZA-47" value="" style="endArrow=none;html=1;rounded=0;" edge="1" parent="1">
          <mxGeometry width="50" height="50" relative="1" as="geometry">
            <mxPoint x="-670" y="776" as="sourcePoint" />
            <mxPoint x="-570" y="776" as="targetPoint" />
          </mxGeometry>
        </mxCell>
        <mxCell id="MsqOn4zYzABH56GJ3uZA-13" value="" style="rhombus;whiteSpace=wrap;html=1;" vertex="1" parent="1">
          <mxGeometry x="-710" y="794" width="80" height="40" as="geometry" />
        </mxCell>
        <mxCell id="MsqOn4zYzABH56GJ3uZA-24" value="Lagi?" style="text;strokeColor=none;align=center;fillColor=none;html=1;verticalAlign=middle;whiteSpace=wrap;rounded=0;" vertex="1" parent="1">
          <mxGeometry x="-700" y="804" width="60" height="20" as="geometry" />
        </mxCell>
        <mxCell id="MsqOn4zYzABH56GJ3uZA-25" value="Keluar dari menu" style="text;strokeColor=none;align=center;fillColor=none;html=1;verticalAlign=middle;whiteSpace=wrap;rounded=0;" vertex="1" parent="1">
          <mxGeometry x="-700" y="864" width="60" height="20" as="geometry" />
        </mxCell>
        <mxCell id="MsqOn4zYzABH56GJ3uZA-43" value="" style="endArrow=classic;html=1;rounded=0;entryX=0.5;entryY=0;entryDx=0;entryDy=0;exitX=0.5;exitY=1;exitDx=0;exitDy=0;" edge="1" parent="1" source="MsqOn4zYzABH56GJ3uZA-13" target="MsqOn4zYzABH56GJ3uZA-14">
          <mxGeometry width="50" height="50" relative="1" as="geometry">
            <mxPoint x="-800" y="884" as="sourcePoint" />
            <mxPoint x="-750" y="834" as="targetPoint" />
          </mxGeometry>
        </mxCell>
        <mxCell id="MsqOn4zYzABH56GJ3uZA-49" value="" style="endArrow=none;html=1;rounded=0;exitX=1;exitY=0.5;exitDx=0;exitDy=0;entryX=1;entryY=1;entryDx=0;entryDy=0;" edge="1" parent="1" source="MsqOn4zYzABH56GJ3uZA-13" target="MsqOn4zYzABH56GJ3uZA-57">
          <mxGeometry width="50" height="50" relative="1" as="geometry">
            <mxPoint x="-590" y="813.41" as="sourcePoint" />
            <mxPoint x="-520" y="813" as="targetPoint" />
          </mxGeometry>
        </mxCell>
        <mxCell id="MsqOn4zYzABH56GJ3uZA-50" value="" style="endArrow=none;html=1;rounded=0;" edge="1" parent="1">
          <mxGeometry width="50" height="50" relative="1" as="geometry">
            <mxPoint x="-520" y="816" as="sourcePoint" />
            <mxPoint x="-520" y="436" as="targetPoint" />
          </mxGeometry>
        </mxCell>
        <mxCell id="MsqOn4zYzABH56GJ3uZA-52" value="" style="endArrow=none;html=1;rounded=0;exitX=0.5;exitY=0;exitDx=0;exitDy=0;entryX=0.5;entryY=1;entryDx=0;entryDy=0;" edge="1" parent="1" source="MsqOn4zYzABH56GJ3uZA-3" target="gWx_gt3MSwIJaAfkZpsO-8">
          <mxGeometry width="50" height="50" relative="1" as="geometry">
            <mxPoint x="-850" y="526" as="sourcePoint" />
            <mxPoint x="-800" y="476" as="targetPoint" />
          </mxGeometry>
        </mxCell>
        <mxCell id="MsqOn4zYzABH56GJ3uZA-54" value="" style="endArrow=none;html=1;rounded=0;" edge="1" parent="1">
          <mxGeometry width="50" height="50" relative="1" as="geometry">
            <mxPoint x="-840" y="669" as="sourcePoint" />
            <mxPoint x="-840" y="556" as="targetPoint" />
          </mxGeometry>
        </mxCell>
        <mxCell id="MsqOn4zYzABH56GJ3uZA-56" value="" style="endArrow=none;html=1;rounded=0;entryX=0;entryY=0.5;entryDx=0;entryDy=0;" edge="1" parent="1" target="MsqOn4zYzABH56GJ3uZA-10">
          <mxGeometry width="50" height="50" relative="1" as="geometry">
            <mxPoint x="-840" y="669" as="sourcePoint" />
            <mxPoint x="-830" y="676" as="targetPoint" />
          </mxGeometry>
        </mxCell>
        <mxCell id="MsqOn4zYzABH56GJ3uZA-57" value="NO" style="text;strokeColor=none;align=center;fillColor=none;html=1;verticalAlign=middle;whiteSpace=wrap;rounded=0;fontSize=9;" vertex="1" parent="1">
          <mxGeometry x="-580" y="786" width="60" height="30" as="geometry" />
        </mxCell>
        <mxCell id="MsqOn4zYzABH56GJ3uZA-59" value="YES" style="text;strokeColor=none;align=center;fillColor=none;html=1;verticalAlign=middle;whiteSpace=wrap;rounded=0;fontSize=9;" vertex="1" parent="1">
          <mxGeometry x="-685" y="824" width="60" height="30" as="geometry" />
        </mxCell>
        <mxCell id="MsqOn4zYzABH56GJ3uZA-60" value="YES" style="text;strokeColor=none;align=center;fillColor=none;html=1;verticalAlign=middle;whiteSpace=wrap;rounded=0;fontSize=9;" vertex="1" parent="1">
          <mxGeometry x="-669" y="776" width="30" height="22" as="geometry" />
        </mxCell>
        <mxCell id="MsqOn4zYzABH56GJ3uZA-62" value="YES" style="text;strokeColor=none;align=center;fillColor=none;html=1;verticalAlign=middle;whiteSpace=wrap;rounded=0;fontSize=9;" vertex="1" parent="1">
          <mxGeometry x="-669" y="719.25" width="30" height="22" as="geometry" />
        </mxCell>
        <mxCell id="MsqOn4zYzABH56GJ3uZA-63" value="YES" style="text;strokeColor=none;align=center;fillColor=none;html=1;verticalAlign=middle;whiteSpace=wrap;rounded=0;fontSize=9;" vertex="1" parent="1">
          <mxGeometry x="-570" y="657.5" width="30" height="22" as="geometry" />
        </mxCell>
        <mxCell id="MsqOn4zYzABH56GJ3uZA-64" value="YES" style="text;strokeColor=none;align=center;fillColor=none;html=1;verticalAlign=middle;whiteSpace=wrap;rounded=0;fontSize=9;" vertex="1" parent="1">
          <mxGeometry x="-770" y="754" width="30" height="22" as="geometry" />
        </mxCell>
        <mxCell id="MsqOn4zYzABH56GJ3uZA-65" value="YES" style="text;strokeColor=none;align=center;fillColor=none;html=1;verticalAlign=middle;whiteSpace=wrap;rounded=0;fontSize=9;" vertex="1" parent="1">
          <mxGeometry x="-767" y="701" width="30" height="22" as="geometry" />
        </mxCell>
        <mxCell id="MsqOn4zYzABH56GJ3uZA-66" value="YES" style="text;strokeColor=none;align=center;fillColor=none;html=1;verticalAlign=middle;whiteSpace=wrap;rounded=0;fontSize=9;" vertex="1" parent="1">
          <mxGeometry x="-670" y="622.75" width="30" height="22" as="geometry" />
        </mxCell>
        <mxCell id="MsqOn4zYzABH56GJ3uZA-67" value="YES" style="text;strokeColor=none;align=center;fillColor=none;html=1;verticalAlign=middle;whiteSpace=wrap;rounded=0;fontSize=9;" vertex="1" parent="1">
          <mxGeometry x="-765" y="616" width="30" height="22" as="geometry" />
        </mxCell>
        <mxCell id="MsqOn4zYzABH56GJ3uZA-68" value="YES" style="text;strokeColor=none;align=center;fillColor=none;html=1;verticalAlign=middle;whiteSpace=wrap;rounded=0;fontSize=9;" vertex="1" parent="1">
          <mxGeometry x="-765" y="576" width="30" height="22" as="geometry" />
        </mxCell>
        <mxCell id="MsqOn4zYzABH56GJ3uZA-69" value="YES" style="text;strokeColor=none;align=center;fillColor=none;html=1;verticalAlign=middle;whiteSpace=wrap;rounded=0;fontSize=9;" vertex="1" parent="1">
          <mxGeometry x="-670" y="576" width="30" height="22" as="geometry" />
        </mxCell>
        <mxCell id="MsqOn4zYzABH56GJ3uZA-70" value="YES" style="text;strokeColor=none;align=center;fillColor=none;html=1;verticalAlign=middle;whiteSpace=wrap;rounded=0;fontSize=9;" vertex="1" parent="1">
          <mxGeometry x="-570" y="506" width="30" height="22" as="geometry" />
        </mxCell>
        <mxCell id="MsqOn4zYzABH56GJ3uZA-71" value="YES" style="text;strokeColor=none;align=center;fillColor=none;html=1;verticalAlign=middle;whiteSpace=wrap;rounded=0;fontSize=9;" vertex="1" parent="1">
          <mxGeometry x="-669" y="515" width="30" height="22" as="geometry" />
        </mxCell>
        <mxCell id="MsqOn4zYzABH56GJ3uZA-72" value="YES" style="text;strokeColor=none;align=center;fillColor=none;html=1;verticalAlign=middle;whiteSpace=wrap;rounded=0;fontSize=9;" vertex="1" parent="1">
          <mxGeometry x="-768" y="506" width="30" height="22" as="geometry" />
        </mxCell>
        <mxCell id="MsqOn4zYzABH56GJ3uZA-250" value="" style="rounded=0;whiteSpace=wrap;html=1;shadow=0;" vertex="1" parent="1">
          <mxGeometry x="-393" y="415" width="120" height="40" as="geometry" />
        </mxCell>
        <mxCell id="MsqOn4zYzABH56GJ3uZA-251" value="" style="rounded=0;whiteSpace=wrap;html=1;" vertex="1" parent="1">
          <mxGeometry x="-373" y="853" width="80" height="40" as="geometry" />
        </mxCell>
        <mxCell id="MsqOn4zYzABH56GJ3uZA-252" value="Data Ruangan" style="text;strokeColor=none;align=center;fillColor=none;html=1;verticalAlign=middle;whiteSpace=wrap;rounded=0;" vertex="1" parent="1">
          <mxGeometry x="-378" y="415" width="90" height="40" as="geometry" />
        </mxCell>
        <mxCell id="MsqOn4zYzABH56GJ3uZA-253" style="edgeStyle=none;rounded=0;orthogonalLoop=1;jettySize=auto;html=1;exitX=0.5;exitY=1;exitDx=0;exitDy=0;entryX=0.5;entryY=0;entryDx=0;entryDy=0;" edge="1" parent="1" source="MsqOn4zYzABH56GJ3uZA-254" target="MsqOn4zYzABH56GJ3uZA-255">
          <mxGeometry relative="1" as="geometry" />
        </mxCell>
        <mxCell id="MsqOn4zYzABH56GJ3uZA-254" value="" style="rhombus;whiteSpace=wrap;html=1;" vertex="1" parent="1">
          <mxGeometry x="-373" y="475" width="80" height="40" as="geometry" />
        </mxCell>
        <mxCell id="MsqOn4zYzABH56GJ3uZA-255" value="" style="rounded=0;whiteSpace=wrap;html=1;" vertex="1" parent="1">
          <mxGeometry x="-373" y="535" width="80" height="40" as="geometry" />
        </mxCell>
        <mxCell id="MsqOn4zYzABH56GJ3uZA-256" value="" style="rounded=0;whiteSpace=wrap;html=1;" vertex="1" parent="1">
          <mxGeometry x="-273" y="535" width="80" height="40" as="geometry" />
        </mxCell>
        <mxCell id="MsqOn4zYzABH56GJ3uZA-257" value="" style="rounded=0;whiteSpace=wrap;html=1;" vertex="1" parent="1">
          <mxGeometry x="-473" y="535" width="80" height="40" as="geometry" />
        </mxCell>
        <mxCell id="MsqOn4zYzABH56GJ3uZA-258" value="" style="rounded=0;whiteSpace=wrap;html=1;" vertex="1" parent="1">
          <mxGeometry x="-373" y="595" width="80" height="20" as="geometry" />
        </mxCell>
        <mxCell id="MsqOn4zYzABH56GJ3uZA-259" value="" style="rounded=0;whiteSpace=wrap;html=1;" vertex="1" parent="1">
          <mxGeometry x="-473" y="595" width="80" height="20" as="geometry" />
        </mxCell>
        <mxCell id="MsqOn4zYzABH56GJ3uZA-260" value="" style="rhombus;whiteSpace=wrap;html=1;" vertex="1" parent="1">
          <mxGeometry x="-483" y="630" width="100" height="75" as="geometry" />
        </mxCell>
        <mxCell id="MsqOn4zYzABH56GJ3uZA-261" value="Tambah Data" style="text;strokeColor=none;align=center;fillColor=none;html=1;verticalAlign=middle;whiteSpace=wrap;rounded=0;" vertex="1" parent="1">
          <mxGeometry x="-463" y="540" width="60" height="30" as="geometry" />
        </mxCell>
        <mxCell id="MsqOn4zYzABH56GJ3uZA-262" value="Edit Data" style="text;strokeColor=none;align=center;fillColor=none;html=1;verticalAlign=middle;whiteSpace=wrap;rounded=0;" vertex="1" parent="1">
          <mxGeometry x="-363" y="540" width="60" height="30" as="geometry" />
        </mxCell>
        <mxCell id="MsqOn4zYzABH56GJ3uZA-263" value="Hapus Data" style="text;strokeColor=none;align=center;fillColor=none;html=1;verticalAlign=middle;whiteSpace=wrap;rounded=0;" vertex="1" parent="1">
          <mxGeometry x="-263" y="540" width="60" height="30" as="geometry" />
        </mxCell>
        <mxCell id="MsqOn4zYzABH56GJ3uZA-264" value="Simpan" style="text;strokeColor=none;align=center;fillColor=none;html=1;verticalAlign=middle;whiteSpace=wrap;rounded=0;" vertex="1" parent="1">
          <mxGeometry x="-463" y="595" width="60" height="20" as="geometry" />
        </mxCell>
        <mxCell id="MsqOn4zYzABH56GJ3uZA-265" value="Simpan" style="text;strokeColor=none;align=center;fillColor=none;html=1;verticalAlign=middle;whiteSpace=wrap;rounded=0;" vertex="1" parent="1">
          <mxGeometry x="-363" y="595" width="60" height="20" as="geometry" />
        </mxCell>
        <mxCell id="MsqOn4zYzABH56GJ3uZA-266" value="Data Sudah ada / Data Masih Kosong&amp;nbsp;" style="text;strokeColor=none;align=center;fillColor=none;html=1;verticalAlign=middle;whiteSpace=wrap;rounded=0;fontSize=9;" vertex="1" parent="1">
          <mxGeometry x="-473" y="655" width="80" height="40" as="geometry" />
        </mxCell>
        <mxCell id="MsqOn4zYzABH56GJ3uZA-267" value="" style="endArrow=none;html=1;rounded=0;entryX=1;entryY=0.5;entryDx=0;entryDy=0;" edge="1" parent="1" target="MsqOn4zYzABH56GJ3uZA-254">
          <mxGeometry width="50" height="50" relative="1" as="geometry">
            <mxPoint x="-233" y="495" as="sourcePoint" />
            <mxPoint x="-203" y="505" as="targetPoint" />
          </mxGeometry>
        </mxCell>
        <mxCell id="MsqOn4zYzABH56GJ3uZA-268" value="" style="endArrow=none;html=1;rounded=0;" edge="1" parent="1">
          <mxGeometry width="50" height="50" relative="1" as="geometry">
            <mxPoint x="-433" y="495" as="sourcePoint" />
            <mxPoint x="-373" y="495" as="targetPoint" />
          </mxGeometry>
        </mxCell>
        <mxCell id="MsqOn4zYzABH56GJ3uZA-269" value="" style="endArrow=classic;html=1;rounded=0;entryX=0.5;entryY=0;entryDx=0;entryDy=0;" edge="1" parent="1" target="MsqOn4zYzABH56GJ3uZA-257">
          <mxGeometry width="50" height="50" relative="1" as="geometry">
            <mxPoint x="-433" y="495" as="sourcePoint" />
            <mxPoint x="-463" y="515" as="targetPoint" />
          </mxGeometry>
        </mxCell>
        <mxCell id="MsqOn4zYzABH56GJ3uZA-270" value="" style="endArrow=classic;html=1;rounded=0;entryX=0.5;entryY=0;entryDx=0;entryDy=0;" edge="1" parent="1" target="MsqOn4zYzABH56GJ3uZA-256">
          <mxGeometry width="50" height="50" relative="1" as="geometry">
            <mxPoint x="-233" y="495" as="sourcePoint" />
            <mxPoint x="-223" y="505" as="targetPoint" />
          </mxGeometry>
        </mxCell>
        <mxCell id="MsqOn4zYzABH56GJ3uZA-271" value="" style="endArrow=classic;html=1;rounded=0;exitX=0.5;exitY=1;exitDx=0;exitDy=0;" edge="1" parent="1" source="MsqOn4zYzABH56GJ3uZA-255">
          <mxGeometry width="50" height="50" relative="1" as="geometry">
            <mxPoint x="-373" y="635" as="sourcePoint" />
            <mxPoint x="-333" y="595" as="targetPoint" />
          </mxGeometry>
        </mxCell>
        <mxCell id="MsqOn4zYzABH56GJ3uZA-272" value="" style="endArrow=classic;html=1;rounded=0;exitX=0.5;exitY=1;exitDx=0;exitDy=0;" edge="1" parent="1" source="MsqOn4zYzABH56GJ3uZA-257">
          <mxGeometry width="50" height="50" relative="1" as="geometry">
            <mxPoint x="-463" y="625" as="sourcePoint" />
            <mxPoint x="-433" y="595" as="targetPoint" />
          </mxGeometry>
        </mxCell>
        <mxCell id="MsqOn4zYzABH56GJ3uZA-273" value="" style="endArrow=classic;html=1;rounded=0;entryX=0.5;entryY=0;entryDx=0;entryDy=0;exitX=0.5;exitY=1;exitDx=0;exitDy=0;" edge="1" parent="1" source="MsqOn4zYzABH56GJ3uZA-264" target="MsqOn4zYzABH56GJ3uZA-260">
          <mxGeometry width="50" height="50" relative="1" as="geometry">
            <mxPoint x="-513" y="675" as="sourcePoint" />
            <mxPoint x="-463" y="625" as="targetPoint" />
          </mxGeometry>
        </mxCell>
        <mxCell id="MsqOn4zYzABH56GJ3uZA-274" value="" style="endArrow=classic;html=1;rounded=0;entryX=0;entryY=0;entryDx=42.5;entryDy=0;entryPerimeter=0;exitX=0.5;exitY=1;exitDx=0;exitDy=0;" edge="1" parent="1" source="MsqOn4zYzABH56GJ3uZA-265" target="MsqOn4zYzABH56GJ3uZA-275">
          <mxGeometry width="50" height="50" relative="1" as="geometry">
            <mxPoint x="-383" y="685" as="sourcePoint" />
            <mxPoint x="-333" y="635" as="targetPoint" />
          </mxGeometry>
        </mxCell>
        <mxCell id="MsqOn4zYzABH56GJ3uZA-275" value="" style="shape=display;whiteSpace=wrap;html=1;" vertex="1" parent="1">
          <mxGeometry x="-375" y="652.5" width="80" height="30" as="geometry" />
        </mxCell>
        <mxCell id="MsqOn4zYzABH56GJ3uZA-276" value="Data Tersimpan" style="text;strokeColor=none;align=center;fillColor=none;html=1;verticalAlign=middle;whiteSpace=wrap;rounded=0;fontSize=9;" vertex="1" parent="1">
          <mxGeometry x="-373" y="661.25" width="80" height="12.5" as="geometry" />
        </mxCell>
        <mxCell id="MsqOn4zYzABH56GJ3uZA-277" value="" style="endArrow=classic;html=1;rounded=0;entryX=0;entryY=0;entryDx=42.5;entryDy=0;entryPerimeter=0;exitX=0.5;exitY=1;exitDx=0;exitDy=0;" edge="1" parent="1" source="MsqOn4zYzABH56GJ3uZA-260" target="MsqOn4zYzABH56GJ3uZA-278">
          <mxGeometry width="50" height="50" relative="1" as="geometry">
            <mxPoint x="-483" y="835" as="sourcePoint" />
            <mxPoint x="-433" y="785" as="targetPoint" />
          </mxGeometry>
        </mxCell>
        <mxCell id="MsqOn4zYzABH56GJ3uZA-278" value="" style="shape=display;whiteSpace=wrap;html=1;" vertex="1" parent="1">
          <mxGeometry x="-475" y="720" width="80" height="30" as="geometry" />
        </mxCell>
        <mxCell id="MsqOn4zYzABH56GJ3uZA-279" value="Data Tersimpan" style="text;strokeColor=none;align=center;fillColor=none;html=1;verticalAlign=middle;whiteSpace=wrap;rounded=0;fontSize=9;" vertex="1" parent="1">
          <mxGeometry x="-473" y="727.75" width="80" height="12.5" as="geometry" />
        </mxCell>
        <mxCell id="MsqOn4zYzABH56GJ3uZA-280" value="" style="endArrow=classic;html=1;rounded=0;entryX=0.5;entryY=0;entryDx=0;entryDy=0;exitX=0;exitY=0;exitDx=42.5;exitDy=30;exitPerimeter=0;" edge="1" parent="1" source="MsqOn4zYzABH56GJ3uZA-275" target="MsqOn4zYzABH56GJ3uZA-285">
          <mxGeometry width="50" height="50" relative="1" as="geometry">
            <mxPoint x="-313" y="745" as="sourcePoint" />
            <mxPoint x="-263" y="695" as="targetPoint" />
          </mxGeometry>
        </mxCell>
        <mxCell id="MsqOn4zYzABH56GJ3uZA-281" value="" style="endArrow=none;html=1;rounded=0;entryX=0;entryY=0;entryDx=42.5;entryDy=30;entryPerimeter=0;" edge="1" parent="1" target="MsqOn4zYzABH56GJ3uZA-278">
          <mxGeometry width="50" height="50" relative="1" as="geometry">
            <mxPoint x="-433" y="775" as="sourcePoint" />
            <mxPoint x="-433" y="755" as="targetPoint" />
          </mxGeometry>
        </mxCell>
        <mxCell id="MsqOn4zYzABH56GJ3uZA-282" value="" style="endArrow=none;html=1;rounded=0;" edge="1" parent="1">
          <mxGeometry width="50" height="50" relative="1" as="geometry">
            <mxPoint x="-433" y="775" as="sourcePoint" />
            <mxPoint x="-333" y="775" as="targetPoint" />
          </mxGeometry>
        </mxCell>
        <mxCell id="MsqOn4zYzABH56GJ3uZA-283" value="" style="endArrow=none;html=1;rounded=0;entryX=0.5;entryY=1;entryDx=0;entryDy=0;" edge="1" parent="1" target="MsqOn4zYzABH56GJ3uZA-256">
          <mxGeometry width="50" height="50" relative="1" as="geometry">
            <mxPoint x="-233" y="775" as="sourcePoint" />
            <mxPoint x="-223" y="655" as="targetPoint" />
          </mxGeometry>
        </mxCell>
        <mxCell id="MsqOn4zYzABH56GJ3uZA-284" value="" style="endArrow=none;html=1;rounded=0;" edge="1" parent="1">
          <mxGeometry width="50" height="50" relative="1" as="geometry">
            <mxPoint x="-333" y="775" as="sourcePoint" />
            <mxPoint x="-233" y="775" as="targetPoint" />
          </mxGeometry>
        </mxCell>
        <mxCell id="MsqOn4zYzABH56GJ3uZA-285" value="" style="rhombus;whiteSpace=wrap;html=1;" vertex="1" parent="1">
          <mxGeometry x="-373" y="793" width="80" height="40" as="geometry" />
        </mxCell>
        <mxCell id="MsqOn4zYzABH56GJ3uZA-286" value="Lagi?" style="text;strokeColor=none;align=center;fillColor=none;html=1;verticalAlign=middle;whiteSpace=wrap;rounded=0;" vertex="1" parent="1">
          <mxGeometry x="-363" y="803" width="60" height="20" as="geometry" />
        </mxCell>
        <mxCell id="MsqOn4zYzABH56GJ3uZA-287" value="Keluar dari menu" style="text;strokeColor=none;align=center;fillColor=none;html=1;verticalAlign=middle;whiteSpace=wrap;rounded=0;" vertex="1" parent="1">
          <mxGeometry x="-363" y="863" width="60" height="20" as="geometry" />
        </mxCell>
        <mxCell id="MsqOn4zYzABH56GJ3uZA-288" value="" style="endArrow=classic;html=1;rounded=0;entryX=0.5;entryY=0;entryDx=0;entryDy=0;exitX=0.5;exitY=1;exitDx=0;exitDy=0;" edge="1" parent="1" source="MsqOn4zYzABH56GJ3uZA-285" target="MsqOn4zYzABH56GJ3uZA-251">
          <mxGeometry width="50" height="50" relative="1" as="geometry">
            <mxPoint x="-463" y="883" as="sourcePoint" />
            <mxPoint x="-413" y="833" as="targetPoint" />
          </mxGeometry>
        </mxCell>
        <mxCell id="MsqOn4zYzABH56GJ3uZA-289" value="" style="endArrow=none;html=1;rounded=0;exitX=1;exitY=0.5;exitDx=0;exitDy=0;entryX=1;entryY=1;entryDx=0;entryDy=0;" edge="1" parent="1" source="MsqOn4zYzABH56GJ3uZA-285" target="MsqOn4zYzABH56GJ3uZA-296">
          <mxGeometry width="50" height="50" relative="1" as="geometry">
            <mxPoint x="-253" y="812.41" as="sourcePoint" />
            <mxPoint x="-183" y="812" as="targetPoint" />
          </mxGeometry>
        </mxCell>
        <mxCell id="MsqOn4zYzABH56GJ3uZA-290" value="" style="endArrow=none;html=1;rounded=0;" edge="1" parent="1">
          <mxGeometry width="50" height="50" relative="1" as="geometry">
            <mxPoint x="-183" y="815" as="sourcePoint" />
            <mxPoint x="-183" y="435" as="targetPoint" />
          </mxGeometry>
        </mxCell>
        <mxCell id="MsqOn4zYzABH56GJ3uZA-292" value="" style="endArrow=none;html=1;rounded=0;exitX=0.5;exitY=0;exitDx=0;exitDy=0;entryX=0.5;entryY=1;entryDx=0;entryDy=0;" edge="1" parent="1" source="MsqOn4zYzABH56GJ3uZA-254" target="MsqOn4zYzABH56GJ3uZA-250">
          <mxGeometry width="50" height="50" relative="1" as="geometry">
            <mxPoint x="-513" y="525" as="sourcePoint" />
            <mxPoint x="-463" y="475" as="targetPoint" />
          </mxGeometry>
        </mxCell>
        <mxCell id="MsqOn4zYzABH56GJ3uZA-293" value="" style="endArrow=none;html=1;rounded=0;" edge="1" parent="1">
          <mxGeometry width="50" height="50" relative="1" as="geometry">
            <mxPoint x="-503" y="668" as="sourcePoint" />
            <mxPoint x="-503" y="555" as="targetPoint" />
          </mxGeometry>
        </mxCell>
        <mxCell id="MsqOn4zYzABH56GJ3uZA-295" value="" style="endArrow=none;html=1;rounded=0;entryX=0;entryY=0.5;entryDx=0;entryDy=0;" edge="1" parent="1" target="MsqOn4zYzABH56GJ3uZA-260">
          <mxGeometry width="50" height="50" relative="1" as="geometry">
            <mxPoint x="-503" y="668" as="sourcePoint" />
            <mxPoint x="-493" y="675" as="targetPoint" />
          </mxGeometry>
        </mxCell>
        <mxCell id="MsqOn4zYzABH56GJ3uZA-296" value="NO" style="text;strokeColor=none;align=center;fillColor=none;html=1;verticalAlign=middle;whiteSpace=wrap;rounded=0;fontSize=9;" vertex="1" parent="1">
          <mxGeometry x="-243" y="785" width="60" height="30" as="geometry" />
        </mxCell>
        <mxCell id="MsqOn4zYzABH56GJ3uZA-297" value="YES" style="text;strokeColor=none;align=center;fillColor=none;html=1;verticalAlign=middle;whiteSpace=wrap;rounded=0;fontSize=9;" vertex="1" parent="1">
          <mxGeometry x="-348" y="823" width="60" height="30" as="geometry" />
        </mxCell>
        <mxCell id="MsqOn4zYzABH56GJ3uZA-298" value="YES" style="text;strokeColor=none;align=center;fillColor=none;html=1;verticalAlign=middle;whiteSpace=wrap;rounded=0;fontSize=9;" vertex="1" parent="1">
          <mxGeometry x="-332" y="775" width="30" height="22" as="geometry" />
        </mxCell>
        <mxCell id="MsqOn4zYzABH56GJ3uZA-299" value="YES" style="text;strokeColor=none;align=center;fillColor=none;html=1;verticalAlign=middle;whiteSpace=wrap;rounded=0;fontSize=9;" vertex="1" parent="1">
          <mxGeometry x="-332" y="718.25" width="30" height="22" as="geometry" />
        </mxCell>
        <mxCell id="MsqOn4zYzABH56GJ3uZA-300" value="YES" style="text;strokeColor=none;align=center;fillColor=none;html=1;verticalAlign=middle;whiteSpace=wrap;rounded=0;fontSize=9;" vertex="1" parent="1">
          <mxGeometry x="-233" y="656.5" width="30" height="22" as="geometry" />
        </mxCell>
        <mxCell id="MsqOn4zYzABH56GJ3uZA-301" value="YES" style="text;strokeColor=none;align=center;fillColor=none;html=1;verticalAlign=middle;whiteSpace=wrap;rounded=0;fontSize=9;" vertex="1" parent="1">
          <mxGeometry x="-433" y="753" width="30" height="22" as="geometry" />
        </mxCell>
        <mxCell id="MsqOn4zYzABH56GJ3uZA-302" value="YES" style="text;strokeColor=none;align=center;fillColor=none;html=1;verticalAlign=middle;whiteSpace=wrap;rounded=0;fontSize=9;" vertex="1" parent="1">
          <mxGeometry x="-430" y="700" width="30" height="22" as="geometry" />
        </mxCell>
        <mxCell id="MsqOn4zYzABH56GJ3uZA-303" value="YES" style="text;strokeColor=none;align=center;fillColor=none;html=1;verticalAlign=middle;whiteSpace=wrap;rounded=0;fontSize=9;" vertex="1" parent="1">
          <mxGeometry x="-333" y="621.75" width="30" height="22" as="geometry" />
        </mxCell>
        <mxCell id="MsqOn4zYzABH56GJ3uZA-304" value="YES" style="text;strokeColor=none;align=center;fillColor=none;html=1;verticalAlign=middle;whiteSpace=wrap;rounded=0;fontSize=9;" vertex="1" parent="1">
          <mxGeometry x="-428" y="615" width="30" height="22" as="geometry" />
        </mxCell>
        <mxCell id="MsqOn4zYzABH56GJ3uZA-305" value="YES" style="text;strokeColor=none;align=center;fillColor=none;html=1;verticalAlign=middle;whiteSpace=wrap;rounded=0;fontSize=9;" vertex="1" parent="1">
          <mxGeometry x="-428" y="575" width="30" height="22" as="geometry" />
        </mxCell>
        <mxCell id="MsqOn4zYzABH56GJ3uZA-306" value="YES" style="text;strokeColor=none;align=center;fillColor=none;html=1;verticalAlign=middle;whiteSpace=wrap;rounded=0;fontSize=9;" vertex="1" parent="1">
          <mxGeometry x="-333" y="575" width="30" height="22" as="geometry" />
        </mxCell>
        <mxCell id="MsqOn4zYzABH56GJ3uZA-307" value="YES" style="text;strokeColor=none;align=center;fillColor=none;html=1;verticalAlign=middle;whiteSpace=wrap;rounded=0;fontSize=9;" vertex="1" parent="1">
          <mxGeometry x="-233" y="505" width="30" height="22" as="geometry" />
        </mxCell>
        <mxCell id="MsqOn4zYzABH56GJ3uZA-308" value="YES" style="text;strokeColor=none;align=center;fillColor=none;html=1;verticalAlign=middle;whiteSpace=wrap;rounded=0;fontSize=9;" vertex="1" parent="1">
          <mxGeometry x="-332" y="514" width="30" height="22" as="geometry" />
        </mxCell>
        <mxCell id="MsqOn4zYzABH56GJ3uZA-309" value="YES" style="text;strokeColor=none;align=center;fillColor=none;html=1;verticalAlign=middle;whiteSpace=wrap;rounded=0;fontSize=9;" vertex="1" parent="1">
          <mxGeometry x="-431" y="505" width="30" height="22" as="geometry" />
        </mxCell>
        <mxCell id="MsqOn4zYzABH56GJ3uZA-310" value="NO" style="text;strokeColor=none;align=center;fillColor=none;html=1;verticalAlign=middle;whiteSpace=wrap;rounded=0;fontSize=9;" vertex="1" parent="1">
          <mxGeometry x="158" y="649.75" width="60" height="30" as="geometry" />
        </mxCell>
        <mxCell id="MsqOn4zYzABH56GJ3uZA-311" value="" style="rounded=0;whiteSpace=wrap;html=1;shadow=0;" vertex="1" parent="1">
          <mxGeometry x="286" y="419" width="120" height="40" as="geometry" />
        </mxCell>
        <mxCell id="MsqOn4zYzABH56GJ3uZA-312" value="" style="rounded=0;whiteSpace=wrap;html=1;" vertex="1" parent="1">
          <mxGeometry x="306" y="857" width="80" height="40" as="geometry" />
        </mxCell>
        <mxCell id="MsqOn4zYzABH56GJ3uZA-313" value="Pengembalian DRM" style="text;strokeColor=none;align=center;fillColor=none;html=1;verticalAlign=middle;whiteSpace=wrap;rounded=0;" vertex="1" parent="1">
          <mxGeometry x="301" y="419" width="90" height="40" as="geometry" />
        </mxCell>
        <mxCell id="MsqOn4zYzABH56GJ3uZA-314" style="edgeStyle=none;rounded=0;orthogonalLoop=1;jettySize=auto;html=1;exitX=0.5;exitY=1;exitDx=0;exitDy=0;entryX=0.5;entryY=0;entryDx=0;entryDy=0;" edge="1" parent="1" source="MsqOn4zYzABH56GJ3uZA-315" target="MsqOn4zYzABH56GJ3uZA-316">
          <mxGeometry relative="1" as="geometry" />
        </mxCell>
        <mxCell id="MsqOn4zYzABH56GJ3uZA-315" value="" style="rhombus;whiteSpace=wrap;html=1;" vertex="1" parent="1">
          <mxGeometry x="306" y="479" width="80" height="40" as="geometry" />
        </mxCell>
        <mxCell id="MsqOn4zYzABH56GJ3uZA-316" value="" style="rounded=0;whiteSpace=wrap;html=1;" vertex="1" parent="1">
          <mxGeometry x="306" y="539" width="80" height="40" as="geometry" />
        </mxCell>
        <mxCell id="MsqOn4zYzABH56GJ3uZA-317" value="" style="rounded=0;whiteSpace=wrap;html=1;" vertex="1" parent="1">
          <mxGeometry x="406" y="539" width="80" height="40" as="geometry" />
        </mxCell>
        <mxCell id="MsqOn4zYzABH56GJ3uZA-318" value="" style="rounded=0;whiteSpace=wrap;html=1;" vertex="1" parent="1">
          <mxGeometry x="206" y="539" width="80" height="40" as="geometry" />
        </mxCell>
        <mxCell id="MsqOn4zYzABH56GJ3uZA-319" value="" style="rounded=0;whiteSpace=wrap;html=1;" vertex="1" parent="1">
          <mxGeometry x="306" y="599" width="80" height="20" as="geometry" />
        </mxCell>
        <mxCell id="MsqOn4zYzABH56GJ3uZA-320" value="" style="rounded=0;whiteSpace=wrap;html=1;" vertex="1" parent="1">
          <mxGeometry x="206" y="599" width="80" height="20" as="geometry" />
        </mxCell>
        <mxCell id="MsqOn4zYzABH56GJ3uZA-321" value="" style="rhombus;whiteSpace=wrap;html=1;" vertex="1" parent="1">
          <mxGeometry x="196" y="634" width="100" height="75" as="geometry" />
        </mxCell>
        <mxCell id="MsqOn4zYzABH56GJ3uZA-322" value="Tambah Data" style="text;strokeColor=none;align=center;fillColor=none;html=1;verticalAlign=middle;whiteSpace=wrap;rounded=0;" vertex="1" parent="1">
          <mxGeometry x="216" y="544" width="60" height="30" as="geometry" />
        </mxCell>
        <mxCell id="MsqOn4zYzABH56GJ3uZA-323" value="Edit Data" style="text;strokeColor=none;align=center;fillColor=none;html=1;verticalAlign=middle;whiteSpace=wrap;rounded=0;" vertex="1" parent="1">
          <mxGeometry x="316" y="544" width="60" height="30" as="geometry" />
        </mxCell>
        <mxCell id="MsqOn4zYzABH56GJ3uZA-324" value="Hapus Data" style="text;strokeColor=none;align=center;fillColor=none;html=1;verticalAlign=middle;whiteSpace=wrap;rounded=0;" vertex="1" parent="1">
          <mxGeometry x="416" y="544" width="60" height="30" as="geometry" />
        </mxCell>
        <mxCell id="MsqOn4zYzABH56GJ3uZA-325" value="Simpan" style="text;strokeColor=none;align=center;fillColor=none;html=1;verticalAlign=middle;whiteSpace=wrap;rounded=0;" vertex="1" parent="1">
          <mxGeometry x="216" y="599" width="60" height="20" as="geometry" />
        </mxCell>
        <mxCell id="MsqOn4zYzABH56GJ3uZA-326" value="Simpan" style="text;strokeColor=none;align=center;fillColor=none;html=1;verticalAlign=middle;whiteSpace=wrap;rounded=0;" vertex="1" parent="1">
          <mxGeometry x="316" y="599" width="60" height="20" as="geometry" />
        </mxCell>
        <mxCell id="MsqOn4zYzABH56GJ3uZA-327" value="Data Sudah ada / Data Masih Kosong&amp;nbsp;" style="text;strokeColor=none;align=center;fillColor=none;html=1;verticalAlign=middle;whiteSpace=wrap;rounded=0;fontSize=9;" vertex="1" parent="1">
          <mxGeometry x="206" y="659" width="80" height="40" as="geometry" />
        </mxCell>
        <mxCell id="MsqOn4zYzABH56GJ3uZA-328" value="" style="endArrow=none;html=1;rounded=0;entryX=1;entryY=0.5;entryDx=0;entryDy=0;" edge="1" parent="1" target="MsqOn4zYzABH56GJ3uZA-315">
          <mxGeometry width="50" height="50" relative="1" as="geometry">
            <mxPoint x="446" y="499" as="sourcePoint" />
            <mxPoint x="476" y="509" as="targetPoint" />
          </mxGeometry>
        </mxCell>
        <mxCell id="MsqOn4zYzABH56GJ3uZA-329" value="" style="endArrow=none;html=1;rounded=0;" edge="1" parent="1">
          <mxGeometry width="50" height="50" relative="1" as="geometry">
            <mxPoint x="246" y="499" as="sourcePoint" />
            <mxPoint x="306" y="499" as="targetPoint" />
          </mxGeometry>
        </mxCell>
        <mxCell id="MsqOn4zYzABH56GJ3uZA-330" value="" style="endArrow=classic;html=1;rounded=0;entryX=0.5;entryY=0;entryDx=0;entryDy=0;" edge="1" parent="1" target="MsqOn4zYzABH56GJ3uZA-318">
          <mxGeometry width="50" height="50" relative="1" as="geometry">
            <mxPoint x="246" y="499" as="sourcePoint" />
            <mxPoint x="216" y="519" as="targetPoint" />
          </mxGeometry>
        </mxCell>
        <mxCell id="MsqOn4zYzABH56GJ3uZA-331" value="" style="endArrow=classic;html=1;rounded=0;entryX=0.5;entryY=0;entryDx=0;entryDy=0;" edge="1" parent="1" target="MsqOn4zYzABH56GJ3uZA-317">
          <mxGeometry width="50" height="50" relative="1" as="geometry">
            <mxPoint x="446" y="499" as="sourcePoint" />
            <mxPoint x="456" y="509" as="targetPoint" />
          </mxGeometry>
        </mxCell>
        <mxCell id="MsqOn4zYzABH56GJ3uZA-332" value="" style="endArrow=classic;html=1;rounded=0;exitX=0.5;exitY=1;exitDx=0;exitDy=0;" edge="1" parent="1" source="MsqOn4zYzABH56GJ3uZA-316">
          <mxGeometry width="50" height="50" relative="1" as="geometry">
            <mxPoint x="306" y="639" as="sourcePoint" />
            <mxPoint x="346" y="599" as="targetPoint" />
          </mxGeometry>
        </mxCell>
        <mxCell id="MsqOn4zYzABH56GJ3uZA-333" value="" style="endArrow=classic;html=1;rounded=0;exitX=0.5;exitY=1;exitDx=0;exitDy=0;" edge="1" parent="1" source="MsqOn4zYzABH56GJ3uZA-318">
          <mxGeometry width="50" height="50" relative="1" as="geometry">
            <mxPoint x="216" y="629" as="sourcePoint" />
            <mxPoint x="246" y="599" as="targetPoint" />
          </mxGeometry>
        </mxCell>
        <mxCell id="MsqOn4zYzABH56GJ3uZA-334" value="" style="endArrow=classic;html=1;rounded=0;entryX=0.5;entryY=0;entryDx=0;entryDy=0;exitX=0.5;exitY=1;exitDx=0;exitDy=0;" edge="1" parent="1" source="MsqOn4zYzABH56GJ3uZA-325" target="MsqOn4zYzABH56GJ3uZA-321">
          <mxGeometry width="50" height="50" relative="1" as="geometry">
            <mxPoint x="166" y="679" as="sourcePoint" />
            <mxPoint x="216" y="629" as="targetPoint" />
          </mxGeometry>
        </mxCell>
        <mxCell id="MsqOn4zYzABH56GJ3uZA-335" value="" style="endArrow=classic;html=1;rounded=0;entryX=0;entryY=0;entryDx=42.5;entryDy=0;entryPerimeter=0;exitX=0.5;exitY=1;exitDx=0;exitDy=0;" edge="1" parent="1" source="MsqOn4zYzABH56GJ3uZA-326" target="MsqOn4zYzABH56GJ3uZA-336">
          <mxGeometry width="50" height="50" relative="1" as="geometry">
            <mxPoint x="296" y="689" as="sourcePoint" />
            <mxPoint x="346" y="639" as="targetPoint" />
          </mxGeometry>
        </mxCell>
        <mxCell id="MsqOn4zYzABH56GJ3uZA-336" value="" style="shape=display;whiteSpace=wrap;html=1;" vertex="1" parent="1">
          <mxGeometry x="304" y="656.5" width="80" height="30" as="geometry" />
        </mxCell>
        <mxCell id="MsqOn4zYzABH56GJ3uZA-337" value="Data Tersimpan" style="text;strokeColor=none;align=center;fillColor=none;html=1;verticalAlign=middle;whiteSpace=wrap;rounded=0;fontSize=9;" vertex="1" parent="1">
          <mxGeometry x="306" y="665.25" width="80" height="12.5" as="geometry" />
        </mxCell>
        <mxCell id="MsqOn4zYzABH56GJ3uZA-338" value="" style="endArrow=classic;html=1;rounded=0;entryX=0;entryY=0;entryDx=42.5;entryDy=0;entryPerimeter=0;exitX=0.5;exitY=1;exitDx=0;exitDy=0;" edge="1" parent="1" source="MsqOn4zYzABH56GJ3uZA-321" target="MsqOn4zYzABH56GJ3uZA-339">
          <mxGeometry width="50" height="50" relative="1" as="geometry">
            <mxPoint x="196" y="839" as="sourcePoint" />
            <mxPoint x="246" y="789" as="targetPoint" />
          </mxGeometry>
        </mxCell>
        <mxCell id="MsqOn4zYzABH56GJ3uZA-339" value="" style="shape=display;whiteSpace=wrap;html=1;" vertex="1" parent="1">
          <mxGeometry x="204" y="724" width="80" height="30" as="geometry" />
        </mxCell>
        <mxCell id="MsqOn4zYzABH56GJ3uZA-340" value="Data Tersimpan" style="text;strokeColor=none;align=center;fillColor=none;html=1;verticalAlign=middle;whiteSpace=wrap;rounded=0;fontSize=9;" vertex="1" parent="1">
          <mxGeometry x="206" y="731.75" width="80" height="12.5" as="geometry" />
        </mxCell>
        <mxCell id="MsqOn4zYzABH56GJ3uZA-341" value="" style="endArrow=classic;html=1;rounded=0;entryX=0.5;entryY=0;entryDx=0;entryDy=0;exitX=0;exitY=0;exitDx=42.5;exitDy=30;exitPerimeter=0;" edge="1" parent="1" source="MsqOn4zYzABH56GJ3uZA-336" target="MsqOn4zYzABH56GJ3uZA-346">
          <mxGeometry width="50" height="50" relative="1" as="geometry">
            <mxPoint x="366" y="749" as="sourcePoint" />
            <mxPoint x="416" y="699" as="targetPoint" />
          </mxGeometry>
        </mxCell>
        <mxCell id="MsqOn4zYzABH56GJ3uZA-342" value="" style="endArrow=none;html=1;rounded=0;entryX=0;entryY=0;entryDx=42.5;entryDy=30;entryPerimeter=0;" edge="1" parent="1" target="MsqOn4zYzABH56GJ3uZA-339">
          <mxGeometry width="50" height="50" relative="1" as="geometry">
            <mxPoint x="246" y="779" as="sourcePoint" />
            <mxPoint x="246" y="759" as="targetPoint" />
          </mxGeometry>
        </mxCell>
        <mxCell id="MsqOn4zYzABH56GJ3uZA-343" value="" style="endArrow=none;html=1;rounded=0;" edge="1" parent="1">
          <mxGeometry width="50" height="50" relative="1" as="geometry">
            <mxPoint x="246" y="779" as="sourcePoint" />
            <mxPoint x="346" y="779" as="targetPoint" />
          </mxGeometry>
        </mxCell>
        <mxCell id="MsqOn4zYzABH56GJ3uZA-344" value="" style="endArrow=none;html=1;rounded=0;entryX=0.5;entryY=1;entryDx=0;entryDy=0;" edge="1" parent="1" target="MsqOn4zYzABH56GJ3uZA-317">
          <mxGeometry width="50" height="50" relative="1" as="geometry">
            <mxPoint x="446" y="779" as="sourcePoint" />
            <mxPoint x="456" y="659" as="targetPoint" />
          </mxGeometry>
        </mxCell>
        <mxCell id="MsqOn4zYzABH56GJ3uZA-345" value="" style="endArrow=none;html=1;rounded=0;" edge="1" parent="1">
          <mxGeometry width="50" height="50" relative="1" as="geometry">
            <mxPoint x="346" y="779" as="sourcePoint" />
            <mxPoint x="446" y="779" as="targetPoint" />
          </mxGeometry>
        </mxCell>
        <mxCell id="MsqOn4zYzABH56GJ3uZA-346" value="" style="rhombus;whiteSpace=wrap;html=1;" vertex="1" parent="1">
          <mxGeometry x="306" y="797" width="80" height="40" as="geometry" />
        </mxCell>
        <mxCell id="MsqOn4zYzABH56GJ3uZA-347" value="Lagi?" style="text;strokeColor=none;align=center;fillColor=none;html=1;verticalAlign=middle;whiteSpace=wrap;rounded=0;" vertex="1" parent="1">
          <mxGeometry x="316" y="807" width="60" height="20" as="geometry" />
        </mxCell>
        <mxCell id="MsqOn4zYzABH56GJ3uZA-348" value="Keluar dari menu" style="text;strokeColor=none;align=center;fillColor=none;html=1;verticalAlign=middle;whiteSpace=wrap;rounded=0;" vertex="1" parent="1">
          <mxGeometry x="316" y="867" width="60" height="20" as="geometry" />
        </mxCell>
        <mxCell id="MsqOn4zYzABH56GJ3uZA-349" value="" style="endArrow=classic;html=1;rounded=0;entryX=0.5;entryY=0;entryDx=0;entryDy=0;exitX=0.5;exitY=1;exitDx=0;exitDy=0;" edge="1" parent="1" source="MsqOn4zYzABH56GJ3uZA-346" target="MsqOn4zYzABH56GJ3uZA-312">
          <mxGeometry width="50" height="50" relative="1" as="geometry">
            <mxPoint x="216" y="887" as="sourcePoint" />
            <mxPoint x="266" y="837" as="targetPoint" />
          </mxGeometry>
        </mxCell>
        <mxCell id="MsqOn4zYzABH56GJ3uZA-350" value="" style="endArrow=none;html=1;rounded=0;exitX=1;exitY=0.5;exitDx=0;exitDy=0;entryX=1;entryY=1;entryDx=0;entryDy=0;" edge="1" parent="1" source="MsqOn4zYzABH56GJ3uZA-346" target="MsqOn4zYzABH56GJ3uZA-357">
          <mxGeometry width="50" height="50" relative="1" as="geometry">
            <mxPoint x="426" y="816.41" as="sourcePoint" />
            <mxPoint x="496" y="816" as="targetPoint" />
          </mxGeometry>
        </mxCell>
        <mxCell id="MsqOn4zYzABH56GJ3uZA-351" value="" style="endArrow=none;html=1;rounded=0;" edge="1" parent="1">
          <mxGeometry width="50" height="50" relative="1" as="geometry">
            <mxPoint x="496" y="819" as="sourcePoint" />
            <mxPoint x="496" y="439" as="targetPoint" />
          </mxGeometry>
        </mxCell>
        <mxCell id="MsqOn4zYzABH56GJ3uZA-353" value="" style="endArrow=none;html=1;rounded=0;exitX=0.5;exitY=0;exitDx=0;exitDy=0;entryX=0.5;entryY=1;entryDx=0;entryDy=0;" edge="1" parent="1" source="MsqOn4zYzABH56GJ3uZA-315" target="MsqOn4zYzABH56GJ3uZA-311">
          <mxGeometry width="50" height="50" relative="1" as="geometry">
            <mxPoint x="166" y="529" as="sourcePoint" />
            <mxPoint x="216" y="479" as="targetPoint" />
          </mxGeometry>
        </mxCell>
        <mxCell id="MsqOn4zYzABH56GJ3uZA-354" value="" style="endArrow=none;html=1;rounded=0;" edge="1" parent="1">
          <mxGeometry width="50" height="50" relative="1" as="geometry">
            <mxPoint x="176" y="672" as="sourcePoint" />
            <mxPoint x="176" y="559" as="targetPoint" />
          </mxGeometry>
        </mxCell>
        <mxCell id="MsqOn4zYzABH56GJ3uZA-356" value="" style="endArrow=none;html=1;rounded=0;entryX=0;entryY=0.5;entryDx=0;entryDy=0;" edge="1" parent="1" target="MsqOn4zYzABH56GJ3uZA-321">
          <mxGeometry width="50" height="50" relative="1" as="geometry">
            <mxPoint x="176" y="672" as="sourcePoint" />
            <mxPoint x="186" y="679" as="targetPoint" />
          </mxGeometry>
        </mxCell>
        <mxCell id="MsqOn4zYzABH56GJ3uZA-357" value="NO" style="text;strokeColor=none;align=center;fillColor=none;html=1;verticalAlign=middle;whiteSpace=wrap;rounded=0;fontSize=9;" vertex="1" parent="1">
          <mxGeometry x="436" y="789" width="60" height="30" as="geometry" />
        </mxCell>
        <mxCell id="MsqOn4zYzABH56GJ3uZA-358" value="YES" style="text;strokeColor=none;align=center;fillColor=none;html=1;verticalAlign=middle;whiteSpace=wrap;rounded=0;fontSize=9;" vertex="1" parent="1">
          <mxGeometry x="331" y="827" width="60" height="30" as="geometry" />
        </mxCell>
        <mxCell id="MsqOn4zYzABH56GJ3uZA-359" value="YES" style="text;strokeColor=none;align=center;fillColor=none;html=1;verticalAlign=middle;whiteSpace=wrap;rounded=0;fontSize=9;" vertex="1" parent="1">
          <mxGeometry x="347" y="779" width="30" height="22" as="geometry" />
        </mxCell>
        <mxCell id="MsqOn4zYzABH56GJ3uZA-360" value="YES" style="text;strokeColor=none;align=center;fillColor=none;html=1;verticalAlign=middle;whiteSpace=wrap;rounded=0;fontSize=9;" vertex="1" parent="1">
          <mxGeometry x="347" y="722.25" width="30" height="22" as="geometry" />
        </mxCell>
        <mxCell id="MsqOn4zYzABH56GJ3uZA-361" value="YES" style="text;strokeColor=none;align=center;fillColor=none;html=1;verticalAlign=middle;whiteSpace=wrap;rounded=0;fontSize=9;" vertex="1" parent="1">
          <mxGeometry x="446" y="660.5" width="30" height="22" as="geometry" />
        </mxCell>
        <mxCell id="MsqOn4zYzABH56GJ3uZA-362" value="YES" style="text;strokeColor=none;align=center;fillColor=none;html=1;verticalAlign=middle;whiteSpace=wrap;rounded=0;fontSize=9;" vertex="1" parent="1">
          <mxGeometry x="246" y="757" width="30" height="22" as="geometry" />
        </mxCell>
        <mxCell id="MsqOn4zYzABH56GJ3uZA-363" value="YES" style="text;strokeColor=none;align=center;fillColor=none;html=1;verticalAlign=middle;whiteSpace=wrap;rounded=0;fontSize=9;" vertex="1" parent="1">
          <mxGeometry x="249" y="704" width="30" height="22" as="geometry" />
        </mxCell>
        <mxCell id="MsqOn4zYzABH56GJ3uZA-364" value="YES" style="text;strokeColor=none;align=center;fillColor=none;html=1;verticalAlign=middle;whiteSpace=wrap;rounded=0;fontSize=9;" vertex="1" parent="1">
          <mxGeometry x="346" y="625.75" width="30" height="22" as="geometry" />
        </mxCell>
        <mxCell id="MsqOn4zYzABH56GJ3uZA-365" value="YES" style="text;strokeColor=none;align=center;fillColor=none;html=1;verticalAlign=middle;whiteSpace=wrap;rounded=0;fontSize=9;" vertex="1" parent="1">
          <mxGeometry x="251" y="619" width="30" height="22" as="geometry" />
        </mxCell>
        <mxCell id="MsqOn4zYzABH56GJ3uZA-366" value="YES" style="text;strokeColor=none;align=center;fillColor=none;html=1;verticalAlign=middle;whiteSpace=wrap;rounded=0;fontSize=9;" vertex="1" parent="1">
          <mxGeometry x="251" y="579" width="30" height="22" as="geometry" />
        </mxCell>
        <mxCell id="MsqOn4zYzABH56GJ3uZA-367" value="YES" style="text;strokeColor=none;align=center;fillColor=none;html=1;verticalAlign=middle;whiteSpace=wrap;rounded=0;fontSize=9;" vertex="1" parent="1">
          <mxGeometry x="346" y="579" width="30" height="22" as="geometry" />
        </mxCell>
        <mxCell id="MsqOn4zYzABH56GJ3uZA-368" value="YES" style="text;strokeColor=none;align=center;fillColor=none;html=1;verticalAlign=middle;whiteSpace=wrap;rounded=0;fontSize=9;" vertex="1" parent="1">
          <mxGeometry x="446" y="509" width="30" height="22" as="geometry" />
        </mxCell>
        <mxCell id="MsqOn4zYzABH56GJ3uZA-369" value="YES" style="text;strokeColor=none;align=center;fillColor=none;html=1;verticalAlign=middle;whiteSpace=wrap;rounded=0;fontSize=9;" vertex="1" parent="1">
          <mxGeometry x="347" y="518" width="30" height="22" as="geometry" />
        </mxCell>
        <mxCell id="MsqOn4zYzABH56GJ3uZA-370" value="YES" style="text;strokeColor=none;align=center;fillColor=none;html=1;verticalAlign=middle;whiteSpace=wrap;rounded=0;fontSize=9;" vertex="1" parent="1">
          <mxGeometry x="248" y="509" width="30" height="22" as="geometry" />
        </mxCell>
        <mxCell id="MsqOn4zYzABH56GJ3uZA-371" value="" style="rounded=0;whiteSpace=wrap;html=1;shadow=0;" vertex="1" parent="1">
          <mxGeometry x="623" y="418" width="120" height="40" as="geometry" />
        </mxCell>
        <mxCell id="MsqOn4zYzABH56GJ3uZA-372" value="" style="rounded=0;whiteSpace=wrap;html=1;" vertex="1" parent="1">
          <mxGeometry x="643" y="856" width="80" height="40" as="geometry" />
        </mxCell>
        <mxCell id="MsqOn4zYzABH56GJ3uZA-373" value="Laporan" style="text;strokeColor=none;align=center;fillColor=none;html=1;verticalAlign=middle;whiteSpace=wrap;rounded=0;" vertex="1" parent="1">
          <mxGeometry x="638" y="418" width="90" height="40" as="geometry" />
        </mxCell>
        <mxCell id="MsqOn4zYzABH56GJ3uZA-374" style="edgeStyle=none;rounded=0;orthogonalLoop=1;jettySize=auto;html=1;exitX=0.5;exitY=1;exitDx=0;exitDy=0;entryX=0.5;entryY=0;entryDx=0;entryDy=0;" edge="1" parent="1" source="MsqOn4zYzABH56GJ3uZA-375" target="MsqOn4zYzABH56GJ3uZA-376">
          <mxGeometry relative="1" as="geometry" />
        </mxCell>
        <mxCell id="MsqOn4zYzABH56GJ3uZA-375" value="" style="rhombus;whiteSpace=wrap;html=1;" vertex="1" parent="1">
          <mxGeometry x="643" y="478" width="80" height="40" as="geometry" />
        </mxCell>
        <mxCell id="MsqOn4zYzABH56GJ3uZA-376" value="" style="rounded=0;whiteSpace=wrap;html=1;" vertex="1" parent="1">
          <mxGeometry x="643" y="538" width="80" height="40" as="geometry" />
        </mxCell>
        <mxCell id="MsqOn4zYzABH56GJ3uZA-377" value="" style="rounded=0;whiteSpace=wrap;html=1;" vertex="1" parent="1">
          <mxGeometry x="743" y="538" width="80" height="40" as="geometry" />
        </mxCell>
        <mxCell id="MsqOn4zYzABH56GJ3uZA-378" value="" style="rounded=0;whiteSpace=wrap;html=1;" vertex="1" parent="1">
          <mxGeometry x="543" y="538" width="80" height="40" as="geometry" />
        </mxCell>
        <mxCell id="MsqOn4zYzABH56GJ3uZA-379" value="" style="rounded=0;whiteSpace=wrap;html=1;" vertex="1" parent="1">
          <mxGeometry x="643" y="598" width="80" height="20" as="geometry" />
        </mxCell>
        <mxCell id="MsqOn4zYzABH56GJ3uZA-380" value="" style="rounded=0;whiteSpace=wrap;html=1;" vertex="1" parent="1">
          <mxGeometry x="543" y="598" width="80" height="20" as="geometry" />
        </mxCell>
        <mxCell id="MsqOn4zYzABH56GJ3uZA-381" value="" style="rhombus;whiteSpace=wrap;html=1;" vertex="1" parent="1">
          <mxGeometry x="533" y="633" width="100" height="75" as="geometry" />
        </mxCell>
        <mxCell id="MsqOn4zYzABH56GJ3uZA-382" value="Tambah Data" style="text;strokeColor=none;align=center;fillColor=none;html=1;verticalAlign=middle;whiteSpace=wrap;rounded=0;" vertex="1" parent="1">
          <mxGeometry x="553" y="543" width="60" height="30" as="geometry" />
        </mxCell>
        <mxCell id="MsqOn4zYzABH56GJ3uZA-383" value="Edit Data" style="text;strokeColor=none;align=center;fillColor=none;html=1;verticalAlign=middle;whiteSpace=wrap;rounded=0;" vertex="1" parent="1">
          <mxGeometry x="653" y="543" width="60" height="30" as="geometry" />
        </mxCell>
        <mxCell id="MsqOn4zYzABH56GJ3uZA-384" value="Hapus Data" style="text;strokeColor=none;align=center;fillColor=none;html=1;verticalAlign=middle;whiteSpace=wrap;rounded=0;" vertex="1" parent="1">
          <mxGeometry x="753" y="543" width="60" height="30" as="geometry" />
        </mxCell>
        <mxCell id="MsqOn4zYzABH56GJ3uZA-385" value="Simpan" style="text;strokeColor=none;align=center;fillColor=none;html=1;verticalAlign=middle;whiteSpace=wrap;rounded=0;" vertex="1" parent="1">
          <mxGeometry x="553" y="598" width="60" height="20" as="geometry" />
        </mxCell>
        <mxCell id="MsqOn4zYzABH56GJ3uZA-386" value="Simpan" style="text;strokeColor=none;align=center;fillColor=none;html=1;verticalAlign=middle;whiteSpace=wrap;rounded=0;" vertex="1" parent="1">
          <mxGeometry x="653" y="598" width="60" height="20" as="geometry" />
        </mxCell>
        <mxCell id="MsqOn4zYzABH56GJ3uZA-387" value="Data Sudah ada / Data Masih Kosong&amp;nbsp;" style="text;strokeColor=none;align=center;fillColor=none;html=1;verticalAlign=middle;whiteSpace=wrap;rounded=0;fontSize=9;" vertex="1" parent="1">
          <mxGeometry x="543" y="658" width="80" height="40" as="geometry" />
        </mxCell>
        <mxCell id="MsqOn4zYzABH56GJ3uZA-388" value="" style="endArrow=none;html=1;rounded=0;entryX=1;entryY=0.5;entryDx=0;entryDy=0;" edge="1" parent="1" target="MsqOn4zYzABH56GJ3uZA-375">
          <mxGeometry width="50" height="50" relative="1" as="geometry">
            <mxPoint x="783" y="498" as="sourcePoint" />
            <mxPoint x="813" y="508" as="targetPoint" />
          </mxGeometry>
        </mxCell>
        <mxCell id="MsqOn4zYzABH56GJ3uZA-389" value="" style="endArrow=none;html=1;rounded=0;" edge="1" parent="1">
          <mxGeometry width="50" height="50" relative="1" as="geometry">
            <mxPoint x="583" y="498" as="sourcePoint" />
            <mxPoint x="643" y="498" as="targetPoint" />
          </mxGeometry>
        </mxCell>
        <mxCell id="MsqOn4zYzABH56GJ3uZA-390" value="" style="endArrow=classic;html=1;rounded=0;entryX=0.5;entryY=0;entryDx=0;entryDy=0;" edge="1" parent="1" target="MsqOn4zYzABH56GJ3uZA-378">
          <mxGeometry width="50" height="50" relative="1" as="geometry">
            <mxPoint x="583" y="498" as="sourcePoint" />
            <mxPoint x="553" y="518" as="targetPoint" />
          </mxGeometry>
        </mxCell>
        <mxCell id="MsqOn4zYzABH56GJ3uZA-391" value="" style="endArrow=classic;html=1;rounded=0;entryX=0.5;entryY=0;entryDx=0;entryDy=0;" edge="1" parent="1" target="MsqOn4zYzABH56GJ3uZA-377">
          <mxGeometry width="50" height="50" relative="1" as="geometry">
            <mxPoint x="783" y="498" as="sourcePoint" />
            <mxPoint x="793" y="508" as="targetPoint" />
          </mxGeometry>
        </mxCell>
        <mxCell id="MsqOn4zYzABH56GJ3uZA-392" value="" style="endArrow=classic;html=1;rounded=0;exitX=0.5;exitY=1;exitDx=0;exitDy=0;" edge="1" parent="1" source="MsqOn4zYzABH56GJ3uZA-376">
          <mxGeometry width="50" height="50" relative="1" as="geometry">
            <mxPoint x="643" y="638" as="sourcePoint" />
            <mxPoint x="683" y="598" as="targetPoint" />
          </mxGeometry>
        </mxCell>
        <mxCell id="MsqOn4zYzABH56GJ3uZA-393" value="" style="endArrow=classic;html=1;rounded=0;exitX=0.5;exitY=1;exitDx=0;exitDy=0;" edge="1" parent="1" source="MsqOn4zYzABH56GJ3uZA-378">
          <mxGeometry width="50" height="50" relative="1" as="geometry">
            <mxPoint x="553" y="628" as="sourcePoint" />
            <mxPoint x="583" y="598" as="targetPoint" />
          </mxGeometry>
        </mxCell>
        <mxCell id="MsqOn4zYzABH56GJ3uZA-394" value="" style="endArrow=classic;html=1;rounded=0;entryX=0.5;entryY=0;entryDx=0;entryDy=0;exitX=0.5;exitY=1;exitDx=0;exitDy=0;" edge="1" parent="1" source="MsqOn4zYzABH56GJ3uZA-385" target="MsqOn4zYzABH56GJ3uZA-381">
          <mxGeometry width="50" height="50" relative="1" as="geometry">
            <mxPoint x="503" y="678" as="sourcePoint" />
            <mxPoint x="553" y="628" as="targetPoint" />
          </mxGeometry>
        </mxCell>
        <mxCell id="MsqOn4zYzABH56GJ3uZA-395" value="" style="endArrow=classic;html=1;rounded=0;entryX=0;entryY=0;entryDx=42.5;entryDy=0;entryPerimeter=0;exitX=0.5;exitY=1;exitDx=0;exitDy=0;" edge="1" parent="1" source="MsqOn4zYzABH56GJ3uZA-386" target="MsqOn4zYzABH56GJ3uZA-396">
          <mxGeometry width="50" height="50" relative="1" as="geometry">
            <mxPoint x="633" y="688" as="sourcePoint" />
            <mxPoint x="683" y="638" as="targetPoint" />
          </mxGeometry>
        </mxCell>
        <mxCell id="MsqOn4zYzABH56GJ3uZA-396" value="" style="shape=display;whiteSpace=wrap;html=1;" vertex="1" parent="1">
          <mxGeometry x="641" y="655.5" width="80" height="30" as="geometry" />
        </mxCell>
        <mxCell id="MsqOn4zYzABH56GJ3uZA-397" value="Data Tersimpan" style="text;strokeColor=none;align=center;fillColor=none;html=1;verticalAlign=middle;whiteSpace=wrap;rounded=0;fontSize=9;" vertex="1" parent="1">
          <mxGeometry x="643" y="664.25" width="80" height="12.5" as="geometry" />
        </mxCell>
        <mxCell id="MsqOn4zYzABH56GJ3uZA-398" value="" style="endArrow=classic;html=1;rounded=0;entryX=0;entryY=0;entryDx=42.5;entryDy=0;entryPerimeter=0;exitX=0.5;exitY=1;exitDx=0;exitDy=0;" edge="1" parent="1" source="MsqOn4zYzABH56GJ3uZA-381" target="MsqOn4zYzABH56GJ3uZA-399">
          <mxGeometry width="50" height="50" relative="1" as="geometry">
            <mxPoint x="533" y="838" as="sourcePoint" />
            <mxPoint x="583" y="788" as="targetPoint" />
          </mxGeometry>
        </mxCell>
        <mxCell id="MsqOn4zYzABH56GJ3uZA-399" value="" style="shape=display;whiteSpace=wrap;html=1;" vertex="1" parent="1">
          <mxGeometry x="541" y="723" width="80" height="30" as="geometry" />
        </mxCell>
        <mxCell id="MsqOn4zYzABH56GJ3uZA-400" value="Data Tersimpan" style="text;strokeColor=none;align=center;fillColor=none;html=1;verticalAlign=middle;whiteSpace=wrap;rounded=0;fontSize=9;" vertex="1" parent="1">
          <mxGeometry x="543" y="730.75" width="80" height="12.5" as="geometry" />
        </mxCell>
        <mxCell id="MsqOn4zYzABH56GJ3uZA-401" value="" style="endArrow=classic;html=1;rounded=0;entryX=0.5;entryY=0;entryDx=0;entryDy=0;exitX=0;exitY=0;exitDx=42.5;exitDy=30;exitPerimeter=0;" edge="1" parent="1" source="MsqOn4zYzABH56GJ3uZA-396" target="MsqOn4zYzABH56GJ3uZA-406">
          <mxGeometry width="50" height="50" relative="1" as="geometry">
            <mxPoint x="703" y="748" as="sourcePoint" />
            <mxPoint x="753" y="698" as="targetPoint" />
          </mxGeometry>
        </mxCell>
        <mxCell id="MsqOn4zYzABH56GJ3uZA-402" value="" style="endArrow=none;html=1;rounded=0;entryX=0;entryY=0;entryDx=42.5;entryDy=30;entryPerimeter=0;" edge="1" parent="1" target="MsqOn4zYzABH56GJ3uZA-399">
          <mxGeometry width="50" height="50" relative="1" as="geometry">
            <mxPoint x="583" y="778" as="sourcePoint" />
            <mxPoint x="583" y="758" as="targetPoint" />
          </mxGeometry>
        </mxCell>
        <mxCell id="MsqOn4zYzABH56GJ3uZA-403" value="" style="endArrow=none;html=1;rounded=0;" edge="1" parent="1">
          <mxGeometry width="50" height="50" relative="1" as="geometry">
            <mxPoint x="583" y="778" as="sourcePoint" />
            <mxPoint x="683" y="778" as="targetPoint" />
          </mxGeometry>
        </mxCell>
        <mxCell id="MsqOn4zYzABH56GJ3uZA-404" value="" style="endArrow=none;html=1;rounded=0;entryX=0.5;entryY=1;entryDx=0;entryDy=0;" edge="1" parent="1" target="MsqOn4zYzABH56GJ3uZA-377">
          <mxGeometry width="50" height="50" relative="1" as="geometry">
            <mxPoint x="783" y="778" as="sourcePoint" />
            <mxPoint x="793" y="658" as="targetPoint" />
          </mxGeometry>
        </mxCell>
        <mxCell id="MsqOn4zYzABH56GJ3uZA-405" value="" style="endArrow=none;html=1;rounded=0;" edge="1" parent="1">
          <mxGeometry width="50" height="50" relative="1" as="geometry">
            <mxPoint x="683" y="778" as="sourcePoint" />
            <mxPoint x="783" y="778" as="targetPoint" />
          </mxGeometry>
        </mxCell>
        <mxCell id="MsqOn4zYzABH56GJ3uZA-406" value="" style="rhombus;whiteSpace=wrap;html=1;" vertex="1" parent="1">
          <mxGeometry x="643" y="796" width="80" height="40" as="geometry" />
        </mxCell>
        <mxCell id="MsqOn4zYzABH56GJ3uZA-407" value="Lagi?" style="text;strokeColor=none;align=center;fillColor=none;html=1;verticalAlign=middle;whiteSpace=wrap;rounded=0;" vertex="1" parent="1">
          <mxGeometry x="653" y="806" width="60" height="20" as="geometry" />
        </mxCell>
        <mxCell id="MsqOn4zYzABH56GJ3uZA-408" value="Keluar dari menu" style="text;strokeColor=none;align=center;fillColor=none;html=1;verticalAlign=middle;whiteSpace=wrap;rounded=0;" vertex="1" parent="1">
          <mxGeometry x="653" y="866" width="60" height="20" as="geometry" />
        </mxCell>
        <mxCell id="MsqOn4zYzABH56GJ3uZA-409" value="" style="endArrow=classic;html=1;rounded=0;entryX=0.5;entryY=0;entryDx=0;entryDy=0;exitX=0.5;exitY=1;exitDx=0;exitDy=0;" edge="1" parent="1" source="MsqOn4zYzABH56GJ3uZA-406" target="MsqOn4zYzABH56GJ3uZA-372">
          <mxGeometry width="50" height="50" relative="1" as="geometry">
            <mxPoint x="553" y="886" as="sourcePoint" />
            <mxPoint x="603" y="836" as="targetPoint" />
          </mxGeometry>
        </mxCell>
        <mxCell id="MsqOn4zYzABH56GJ3uZA-410" value="" style="endArrow=none;html=1;rounded=0;exitX=1;exitY=0.5;exitDx=0;exitDy=0;entryX=1;entryY=1;entryDx=0;entryDy=0;" edge="1" parent="1" source="MsqOn4zYzABH56GJ3uZA-406" target="MsqOn4zYzABH56GJ3uZA-417">
          <mxGeometry width="50" height="50" relative="1" as="geometry">
            <mxPoint x="763" y="815.41" as="sourcePoint" />
            <mxPoint x="833" y="815" as="targetPoint" />
          </mxGeometry>
        </mxCell>
        <mxCell id="MsqOn4zYzABH56GJ3uZA-411" value="" style="endArrow=none;html=1;rounded=0;" edge="1" parent="1">
          <mxGeometry width="50" height="50" relative="1" as="geometry">
            <mxPoint x="833" y="818" as="sourcePoint" />
            <mxPoint x="833" y="438" as="targetPoint" />
          </mxGeometry>
        </mxCell>
        <mxCell id="MsqOn4zYzABH56GJ3uZA-413" value="" style="endArrow=none;html=1;rounded=0;exitX=0.5;exitY=0;exitDx=0;exitDy=0;entryX=0.5;entryY=1;entryDx=0;entryDy=0;" edge="1" parent="1" source="MsqOn4zYzABH56GJ3uZA-375" target="MsqOn4zYzABH56GJ3uZA-371">
          <mxGeometry width="50" height="50" relative="1" as="geometry">
            <mxPoint x="503" y="528" as="sourcePoint" />
            <mxPoint x="553" y="478" as="targetPoint" />
          </mxGeometry>
        </mxCell>
        <mxCell id="MsqOn4zYzABH56GJ3uZA-414" value="" style="endArrow=none;html=1;rounded=0;" edge="1" parent="1">
          <mxGeometry width="50" height="50" relative="1" as="geometry">
            <mxPoint x="513" y="671" as="sourcePoint" />
            <mxPoint x="513" y="558" as="targetPoint" />
          </mxGeometry>
        </mxCell>
        <mxCell id="MsqOn4zYzABH56GJ3uZA-416" value="" style="endArrow=none;html=1;rounded=0;entryX=0;entryY=0.5;entryDx=0;entryDy=0;" edge="1" parent="1" target="MsqOn4zYzABH56GJ3uZA-381">
          <mxGeometry width="50" height="50" relative="1" as="geometry">
            <mxPoint x="513" y="671" as="sourcePoint" />
            <mxPoint x="523" y="678" as="targetPoint" />
          </mxGeometry>
        </mxCell>
        <mxCell id="MsqOn4zYzABH56GJ3uZA-417" value="NO" style="text;strokeColor=none;align=center;fillColor=none;html=1;verticalAlign=middle;whiteSpace=wrap;rounded=0;fontSize=9;" vertex="1" parent="1">
          <mxGeometry x="773" y="788" width="60" height="30" as="geometry" />
        </mxCell>
        <mxCell id="MsqOn4zYzABH56GJ3uZA-418" value="YES" style="text;strokeColor=none;align=center;fillColor=none;html=1;verticalAlign=middle;whiteSpace=wrap;rounded=0;fontSize=9;" vertex="1" parent="1">
          <mxGeometry x="668" y="826" width="60" height="30" as="geometry" />
        </mxCell>
        <mxCell id="MsqOn4zYzABH56GJ3uZA-419" value="YES" style="text;strokeColor=none;align=center;fillColor=none;html=1;verticalAlign=middle;whiteSpace=wrap;rounded=0;fontSize=9;" vertex="1" parent="1">
          <mxGeometry x="684" y="778" width="30" height="22" as="geometry" />
        </mxCell>
        <mxCell id="MsqOn4zYzABH56GJ3uZA-420" value="YES" style="text;strokeColor=none;align=center;fillColor=none;html=1;verticalAlign=middle;whiteSpace=wrap;rounded=0;fontSize=9;" vertex="1" parent="1">
          <mxGeometry x="684" y="721.25" width="30" height="22" as="geometry" />
        </mxCell>
        <mxCell id="MsqOn4zYzABH56GJ3uZA-421" value="YES" style="text;strokeColor=none;align=center;fillColor=none;html=1;verticalAlign=middle;whiteSpace=wrap;rounded=0;fontSize=9;" vertex="1" parent="1">
          <mxGeometry x="783" y="659.5" width="30" height="22" as="geometry" />
        </mxCell>
        <mxCell id="MsqOn4zYzABH56GJ3uZA-422" value="YES" style="text;strokeColor=none;align=center;fillColor=none;html=1;verticalAlign=middle;whiteSpace=wrap;rounded=0;fontSize=9;" vertex="1" parent="1">
          <mxGeometry x="583" y="756" width="30" height="22" as="geometry" />
        </mxCell>
        <mxCell id="MsqOn4zYzABH56GJ3uZA-423" value="YES" style="text;strokeColor=none;align=center;fillColor=none;html=1;verticalAlign=middle;whiteSpace=wrap;rounded=0;fontSize=9;" vertex="1" parent="1">
          <mxGeometry x="586" y="703" width="30" height="22" as="geometry" />
        </mxCell>
        <mxCell id="MsqOn4zYzABH56GJ3uZA-424" value="YES" style="text;strokeColor=none;align=center;fillColor=none;html=1;verticalAlign=middle;whiteSpace=wrap;rounded=0;fontSize=9;" vertex="1" parent="1">
          <mxGeometry x="683" y="624.75" width="30" height="22" as="geometry" />
        </mxCell>
        <mxCell id="MsqOn4zYzABH56GJ3uZA-425" value="YES" style="text;strokeColor=none;align=center;fillColor=none;html=1;verticalAlign=middle;whiteSpace=wrap;rounded=0;fontSize=9;" vertex="1" parent="1">
          <mxGeometry x="588" y="618" width="30" height="22" as="geometry" />
        </mxCell>
        <mxCell id="MsqOn4zYzABH56GJ3uZA-426" value="YES" style="text;strokeColor=none;align=center;fillColor=none;html=1;verticalAlign=middle;whiteSpace=wrap;rounded=0;fontSize=9;" vertex="1" parent="1">
          <mxGeometry x="588" y="578" width="30" height="22" as="geometry" />
        </mxCell>
        <mxCell id="MsqOn4zYzABH56GJ3uZA-427" value="YES" style="text;strokeColor=none;align=center;fillColor=none;html=1;verticalAlign=middle;whiteSpace=wrap;rounded=0;fontSize=9;" vertex="1" parent="1">
          <mxGeometry x="683" y="578" width="30" height="22" as="geometry" />
        </mxCell>
        <mxCell id="MsqOn4zYzABH56GJ3uZA-428" value="YES" style="text;strokeColor=none;align=center;fillColor=none;html=1;verticalAlign=middle;whiteSpace=wrap;rounded=0;fontSize=9;" vertex="1" parent="1">
          <mxGeometry x="783" y="508" width="30" height="22" as="geometry" />
        </mxCell>
        <mxCell id="MsqOn4zYzABH56GJ3uZA-429" value="YES" style="text;strokeColor=none;align=center;fillColor=none;html=1;verticalAlign=middle;whiteSpace=wrap;rounded=0;fontSize=9;" vertex="1" parent="1">
          <mxGeometry x="684" y="517" width="30" height="22" as="geometry" />
        </mxCell>
        <mxCell id="MsqOn4zYzABH56GJ3uZA-430" value="YES" style="text;strokeColor=none;align=center;fillColor=none;html=1;verticalAlign=middle;whiteSpace=wrap;rounded=0;fontSize=9;" vertex="1" parent="1">
          <mxGeometry x="585" y="508" width="30" height="22" as="geometry" />
        </mxCell>
        <mxCell id="MsqOn4zYzABH56GJ3uZA-853" value="" style="endArrow=classic;html=1;rounded=0;entryX=0.5;entryY=0;entryDx=0;entryDy=0;" edge="1" parent="1" target="MsqOn4zYzABH56GJ3uZA-192">
          <mxGeometry width="50" height="50" relative="1" as="geometry">
            <mxPoint x="-2" y="339" as="sourcePoint" />
            <mxPoint x="-60" y="339" as="targetPoint" />
          </mxGeometry>
        </mxCell>
        <mxCell id="MsqOn4zYzABH56GJ3uZA-854" value="" style="endArrow=none;html=1;rounded=0;" edge="1" parent="1">
          <mxGeometry width="50" height="50" relative="1" as="geometry">
            <mxPoint x="-670" y="379" as="sourcePoint" />
            <mxPoint x="683" y="379" as="targetPoint" />
          </mxGeometry>
        </mxCell>
        <mxCell id="MsqOn4zYzABH56GJ3uZA-855" value="" style="endArrow=classic;html=1;rounded=0;entryX=0.5;entryY=0;entryDx=0;entryDy=0;" edge="1" parent="1" target="MsqOn4zYzABH56GJ3uZA-53">
          <mxGeometry width="50" height="50" relative="1" as="geometry">
            <mxPoint x="-670" y="379" as="sourcePoint" />
            <mxPoint x="-700" y="349" as="targetPoint" />
          </mxGeometry>
        </mxCell>
        <mxCell id="MsqOn4zYzABH56GJ3uZA-856" value="" style="endArrow=classic;html=1;rounded=0;entryX=0.5;entryY=0;entryDx=0;entryDy=0;" edge="1" parent="1" target="MsqOn4zYzABH56GJ3uZA-252">
          <mxGeometry width="50" height="50" relative="1" as="geometry">
            <mxPoint x="-333" y="379" as="sourcePoint" />
            <mxPoint x="-348" y="386" as="targetPoint" />
          </mxGeometry>
        </mxCell>
        <mxCell id="MsqOn4zYzABH56GJ3uZA-857" value="" style="endArrow=classic;html=1;rounded=0;entryX=0.5;entryY=0;entryDx=0;entryDy=0;" edge="1" parent="1" target="MsqOn4zYzABH56GJ3uZA-313">
          <mxGeometry width="50" height="50" relative="1" as="geometry">
            <mxPoint x="346" y="379" as="sourcePoint" />
            <mxPoint x="420" y="369" as="targetPoint" />
          </mxGeometry>
        </mxCell>
        <mxCell id="MsqOn4zYzABH56GJ3uZA-858" value="" style="endArrow=classic;html=1;rounded=0;entryX=0.5;entryY=0;entryDx=0;entryDy=0;" edge="1" parent="1" target="MsqOn4zYzABH56GJ3uZA-373">
          <mxGeometry width="50" height="50" relative="1" as="geometry">
            <mxPoint x="683" y="379" as="sourcePoint" />
            <mxPoint x="356" y="429" as="targetPoint" />
          </mxGeometry>
        </mxCell>
        <mxCell id="gWx_gt3MSwIJaAfkZpsO-3" value="" style="shape=parallelogram;perimeter=parallelogramPerimeter;whiteSpace=wrap;html=1;fixedSize=1;shadow=0;" vertex="1" parent="1">
          <mxGeometry x="-80" y="140" width="160" height="40" as="geometry" />
        </mxCell>
        <mxCell id="MsqOn4zYzABH56GJ3uZA-861" value="Inputkan Username dan Password" style="text;strokeColor=none;align=center;fillColor=none;html=1;verticalAlign=middle;whiteSpace=wrap;rounded=0;" vertex="1" parent="1">
          <mxGeometry x="-59" y="140" width="121" height="40" as="geometry" />
        </mxCell>
        <mxCell id="MsqOn4zYzABH56GJ3uZA-864" value="Login" style="text;strokeColor=none;align=center;fillColor=none;html=1;verticalAlign=middle;whiteSpace=wrap;rounded=0;" vertex="1" parent="1">
          <mxGeometry x="-44.99999999999995" y="78" width="90" height="40" as="geometry" />
        </mxCell>
        <mxCell id="MsqOn4zYzABH56GJ3uZA-865" value="START" style="text;strokeColor=none;align=center;fillColor=none;html=1;verticalAlign=middle;whiteSpace=wrap;rounded=0;" vertex="1" parent="1">
          <mxGeometry x="-44.99999999999995" y="20" width="90" height="40" as="geometry" />
        </mxCell>
        <mxCell id="gWx_gt3MSwIJaAfkZpsO-4" value="" style="rhombus;whiteSpace=wrap;html=1;shadow=0;" vertex="1" parent="1">
          <mxGeometry x="-40" y="197" width="80" height="80" as="geometry" />
        </mxCell>
        <mxCell id="MsqOn4zYzABH56GJ3uZA-860" value="Periksa &lt;br&gt;Akun" style="text;strokeColor=none;align=center;fillColor=none;html=1;verticalAlign=middle;whiteSpace=wrap;rounded=0;" vertex="1" parent="1">
          <mxGeometry x="-45.99999999999994" y="218" width="90" height="40" as="geometry" />
        </mxCell>
        <mxCell id="MsqOn4zYzABH56GJ3uZA-862" value="" style="shape=parallelogram;perimeter=parallelogramPerimeter;whiteSpace=wrap;html=1;fixedSize=1;shadow=0;" vertex="1" parent="1">
          <mxGeometry x="80" y="218" width="160" height="40" as="geometry" />
        </mxCell>
        <mxCell id="MsqOn4zYzABH56GJ3uZA-863" value="Inputkan Username dan Password" style="text;strokeColor=none;align=center;fillColor=none;html=1;verticalAlign=middle;whiteSpace=wrap;rounded=0;" vertex="1" parent="1">
          <mxGeometry x="101" y="218" width="121" height="40" as="geometry" />
        </mxCell>
        <mxCell id="gWx_gt3MSwIJaAfkZpsO-7" value="" style="rounded=0;whiteSpace=wrap;html=1;shadow=0;" vertex="1" parent="1">
          <mxGeometry x="-61" y="299" width="120" height="40" as="geometry" />
        </mxCell>
        <mxCell id="MsqOn4zYzABH56GJ3uZA-852" value="Dasboard" style="text;strokeColor=none;align=center;fillColor=none;html=1;verticalAlign=middle;whiteSpace=wrap;rounded=0;" vertex="1" parent="1">
          <mxGeometry x="-44.53999999999995" y="299" width="90" height="40" as="geometry" />
        </mxCell>
        <mxCell id="gWx_gt3MSwIJaAfkZpsO-6" value="" style="rhombus;whiteSpace=wrap;html=1;shadow=0;" vertex="1" parent="1">
          <mxGeometry x="120" y="279" width="80" height="80" as="geometry" />
        </mxCell>
        <mxCell id="MsqOn4zYzABH56GJ3uZA-859" value="Periksa &lt;br&gt;Akun" style="text;strokeColor=none;align=center;fillColor=none;html=1;verticalAlign=middle;whiteSpace=wrap;rounded=0;" vertex="1" parent="1">
          <mxGeometry x="115.00000000000006" y="299" width="90" height="40" as="geometry" />
        </mxCell>
        <mxCell id="MsqOn4zYzABH56GJ3uZA-872" value="" style="endArrow=none;html=1;rounded=0;" edge="1" parent="1">
          <mxGeometry width="50" height="50" relative="1" as="geometry">
            <mxPoint x="-670" y="920" as="sourcePoint" />
            <mxPoint x="684" y="920" as="targetPoint" />
          </mxGeometry>
        </mxCell>
        <mxCell id="MsqOn4zYzABH56GJ3uZA-873" value="" style="endArrow=classic;html=1;rounded=0;exitX=0.5;exitY=1;exitDx=0;exitDy=0;" edge="1" parent="1" source="MsqOn4zYzABH56GJ3uZA-14">
          <mxGeometry width="50" height="50" relative="1" as="geometry">
            <mxPoint x="-710" y="1000" as="sourcePoint" />
            <mxPoint x="-670" y="920" as="targetPoint" />
          </mxGeometry>
        </mxCell>
        <mxCell id="MsqOn4zYzABH56GJ3uZA-874" value="" style="endArrow=classic;html=1;rounded=0;exitX=0.5;exitY=1;exitDx=0;exitDy=0;" edge="1" parent="1" source="MsqOn4zYzABH56GJ3uZA-251">
          <mxGeometry width="50" height="50" relative="1" as="geometry">
            <mxPoint x="-440" y="910" as="sourcePoint" />
            <mxPoint x="-333" y="920" as="targetPoint" />
          </mxGeometry>
        </mxCell>
        <mxCell id="MsqOn4zYzABH56GJ3uZA-875" value="" style="endArrow=classic;html=1;rounded=0;entryX=0.5;entryY=0;entryDx=0;entryDy=0;exitX=0.5;exitY=1;exitDx=0;exitDy=0;" edge="1" parent="1" source="MsqOn4zYzABH56GJ3uZA-191" target="MsqOn4zYzABH56GJ3uZA-867">
          <mxGeometry width="50" height="50" relative="1" as="geometry">
            <mxPoint x="-90" y="920" as="sourcePoint" />
            <mxPoint x="-40" y="870" as="targetPoint" />
          </mxGeometry>
        </mxCell>
        <mxCell id="MsqOn4zYzABH56GJ3uZA-870" value="" style="ellipse;whiteSpace=wrap;html=1;shadow=0;" vertex="1" parent="1">
          <mxGeometry x="-48.5" y="1054" width="85" height="40" as="geometry" />
        </mxCell>
        <mxCell id="MsqOn4zYzABH56GJ3uZA-871" value="END" style="text;strokeColor=none;align=center;fillColor=none;html=1;verticalAlign=middle;whiteSpace=wrap;rounded=0;" vertex="1" parent="1">
          <mxGeometry x="-50.99999999999995" y="1054" width="90" height="40" as="geometry" />
        </mxCell>
        <mxCell id="MsqOn4zYzABH56GJ3uZA-866" value="" style="rounded=0;whiteSpace=wrap;html=1;shadow=0;" vertex="1" parent="1">
          <mxGeometry x="-63" y="939" width="120" height="40" as="geometry" />
        </mxCell>
        <mxCell id="MsqOn4zYzABH56GJ3uZA-867" value="Dasboard" style="text;strokeColor=none;align=center;fillColor=none;html=1;verticalAlign=middle;whiteSpace=wrap;rounded=0;" vertex="1" parent="1">
          <mxGeometry x="-46.53999999999995" y="939" width="90" height="40" as="geometry" />
        </mxCell>
        <mxCell id="MsqOn4zYzABH56GJ3uZA-868" value="" style="rounded=0;whiteSpace=wrap;html=1;shadow=0;" vertex="1" parent="1">
          <mxGeometry x="-63.5" y="1000" width="120" height="40" as="geometry" />
        </mxCell>
        <mxCell id="MsqOn4zYzABH56GJ3uZA-869" value="LogOut" style="text;strokeColor=none;align=center;fillColor=none;html=1;verticalAlign=middle;whiteSpace=wrap;rounded=0;" vertex="1" parent="1">
          <mxGeometry x="-49.49999999999995" y="1000" width="90" height="40" as="geometry" />
        </mxCell>
        <mxCell id="MsqOn4zYzABH56GJ3uZA-876" value="" style="endArrow=classic;html=1;rounded=0;exitX=0.5;exitY=1;exitDx=0;exitDy=0;" edge="1" parent="1" source="MsqOn4zYzABH56GJ3uZA-312">
          <mxGeometry width="50" height="50" relative="1" as="geometry">
            <mxPoint x="340" y="1020" as="sourcePoint" />
            <mxPoint x="346" y="920" as="targetPoint" />
          </mxGeometry>
        </mxCell>
        <mxCell id="MsqOn4zYzABH56GJ3uZA-877" value="" style="endArrow=classic;html=1;rounded=0;exitX=0.5;exitY=1;exitDx=0;exitDy=0;" edge="1" parent="1" source="MsqOn4zYzABH56GJ3uZA-372">
          <mxGeometry width="50" height="50" relative="1" as="geometry">
            <mxPoint x="610" y="1020" as="sourcePoint" />
            <mxPoint x="683" y="920" as="targetPoint" />
          </mxGeometry>
        </mxCell>
        <mxCell id="MsqOn4zYzABH56GJ3uZA-878" value="" style="endArrow=classic;html=1;rounded=0;entryX=0.5;entryY=0;entryDx=0;entryDy=0;" edge="1" parent="1" target="MsqOn4zYzABH56GJ3uZA-869">
          <mxGeometry width="50" height="50" relative="1" as="geometry">
            <mxPoint x="-4" y="980" as="sourcePoint" />
            <mxPoint x="180" y="990" as="targetPoint" />
          </mxGeometry>
        </mxCell>
        <mxCell id="MsqOn4zYzABH56GJ3uZA-879" value="" style="endArrow=classic;html=1;rounded=0;entryX=0.5;entryY=0;entryDx=0;entryDy=0;exitX=0.485;exitY=1.112;exitDx=0;exitDy=0;exitPerimeter=0;" edge="1" parent="1" source="MsqOn4zYzABH56GJ3uZA-869" target="MsqOn4zYzABH56GJ3uZA-871">
          <mxGeometry width="50" height="50" relative="1" as="geometry">
            <mxPoint x="-120" y="1090" as="sourcePoint" />
            <mxPoint x="-70" y="1040" as="targetPoint" />
          </mxGeometry>
        </mxCell>
        <mxCell id="MsqOn4zYzABH56GJ3uZA-880" value="" style="endArrow=none;html=1;rounded=0;exitX=1;exitY=0.5;exitDx=0;exitDy=0;" edge="1" parent="1" source="MsqOn4zYzABH56GJ3uZA-868">
          <mxGeometry width="50" height="50" relative="1" as="geometry">
            <mxPoint x="90" y="1050" as="sourcePoint" />
            <mxPoint x="100" y="1020" as="targetPoint" />
          </mxGeometry>
        </mxCell>
        <mxCell id="MsqOn4zYzABH56GJ3uZA-882" value="" style="endArrow=none;html=1;rounded=0;" edge="1" parent="1">
          <mxGeometry width="50" height="50" relative="1" as="geometry">
            <mxPoint x="100" y="1020" as="sourcePoint" />
            <mxPoint x="100" y="960" as="targetPoint" />
          </mxGeometry>
        </mxCell>
        <mxCell id="MsqOn4zYzABH56GJ3uZA-883" value="NO" style="text;strokeColor=none;align=center;fillColor=none;html=1;verticalAlign=middle;whiteSpace=wrap;rounded=0;fontSize=9;" vertex="1" parent="1">
          <mxGeometry x="68" y="1000" width="33" height="20" as="geometry" />
        </mxCell>
        <mxCell id="MsqOn4zYzABH56GJ3uZA-884" value="YES" style="text;strokeColor=none;align=center;fillColor=none;html=1;verticalAlign=middle;whiteSpace=wrap;rounded=0;fontSize=9;" vertex="1" parent="1">
          <mxGeometry x="-1.5399999999999459" y="897" width="30" height="22" as="geometry" />
        </mxCell>
        <mxCell id="MsqOn4zYzABH56GJ3uZA-885" value="YES" style="text;strokeColor=none;align=center;fillColor=none;html=1;verticalAlign=middle;whiteSpace=wrap;rounded=0;fontSize=9;" vertex="1" parent="1">
          <mxGeometry x="5.3290705182007514e-14" y="978" width="30" height="22" as="geometry" />
        </mxCell>
        <mxCell id="MsqOn4zYzABH56GJ3uZA-886" value="YES" style="text;strokeColor=none;align=center;fillColor=none;html=1;verticalAlign=middle;whiteSpace=wrap;rounded=0;fontSize=9;" vertex="1" parent="1">
          <mxGeometry x="-2.539999999999946" y="1036" width="30" height="22" as="geometry" />
        </mxCell>
        <mxCell id="MsqOn4zYzABH56GJ3uZA-887" value="YES" style="text;strokeColor=none;align=center;fillColor=none;html=1;verticalAlign=middle;whiteSpace=wrap;rounded=0;fontSize=9;" vertex="1" parent="1">
          <mxGeometry x="354.00000000000006" y="897" width="30" height="22" as="geometry" />
        </mxCell>
        <mxCell id="MsqOn4zYzABH56GJ3uZA-888" value="YES" style="text;strokeColor=none;align=center;fillColor=none;html=1;verticalAlign=middle;whiteSpace=wrap;rounded=0;fontSize=9;" vertex="1" parent="1">
          <mxGeometry x="684" y="896" width="30" height="22" as="geometry" />
        </mxCell>
        <mxCell id="MsqOn4zYzABH56GJ3uZA-889" value="YES" style="text;strokeColor=none;align=center;fillColor=none;html=1;verticalAlign=middle;whiteSpace=wrap;rounded=0;fontSize=9;" vertex="1" parent="1">
          <mxGeometry x="-328" y="895" width="30" height="22" as="geometry" />
        </mxCell>
        <mxCell id="MsqOn4zYzABH56GJ3uZA-890" value="YES" style="text;strokeColor=none;align=center;fillColor=none;html=1;verticalAlign=middle;whiteSpace=wrap;rounded=0;fontSize=9;" vertex="1" parent="1">
          <mxGeometry x="-668" y="896" width="30" height="22" as="geometry" />
        </mxCell>
        <mxCell id="MsqOn4zYzABH56GJ3uZA-891" value="" style="endArrow=classic;html=1;rounded=0;entryX=0.5;entryY=0;entryDx=0;entryDy=0;exitX=0.5;exitY=1;exitDx=0;exitDy=0;" edge="1" parent="1" source="gWx_gt3MSwIJaAfkZpsO-4" target="MsqOn4zYzABH56GJ3uZA-852">
          <mxGeometry width="50" height="50" relative="1" as="geometry">
            <mxPoint x="-150" y="270" as="sourcePoint" />
            <mxPoint x="-100" y="220" as="targetPoint" />
          </mxGeometry>
        </mxCell>
        <mxCell id="MsqOn4zYzABH56GJ3uZA-892" value="" style="endArrow=classic;html=1;rounded=0;entryX=0.5;entryY=0;entryDx=0;entryDy=0;exitX=0.5;exitY=1;exitDx=0;exitDy=0;" edge="1" parent="1" source="MsqOn4zYzABH56GJ3uZA-861" target="gWx_gt3MSwIJaAfkZpsO-4">
          <mxGeometry width="50" height="50" relative="1" as="geometry">
            <mxPoint x="-150" y="290" as="sourcePoint" />
            <mxPoint x="-100" y="240" as="targetPoint" />
          </mxGeometry>
        </mxCell>
        <mxCell id="MsqOn4zYzABH56GJ3uZA-893" value="" style="endArrow=classic;html=1;rounded=0;entryX=0.5;entryY=0;entryDx=0;entryDy=0;exitX=0.5;exitY=1;exitDx=0;exitDy=0;" edge="1" parent="1" source="MsqOn4zYzABH56GJ3uZA-864" target="MsqOn4zYzABH56GJ3uZA-861">
          <mxGeometry width="50" height="50" relative="1" as="geometry">
            <mxPoint x="-140" y="220" as="sourcePoint" />
            <mxPoint x="-90" y="170" as="targetPoint" />
          </mxGeometry>
        </mxCell>
        <mxCell id="MsqOn4zYzABH56GJ3uZA-894" value="" style="endArrow=classic;html=1;rounded=0;entryX=0.5;entryY=0;entryDx=0;entryDy=0;exitX=0.5;exitY=1;exitDx=0;exitDy=0;" edge="1" parent="1" source="MsqOn4zYzABH56GJ3uZA-865" target="MsqOn4zYzABH56GJ3uZA-864">
          <mxGeometry width="50" height="50" relative="1" as="geometry">
            <mxPoint x="-200" y="190" as="sourcePoint" />
            <mxPoint x="-150" y="140" as="targetPoint" />
          </mxGeometry>
        </mxCell>
        <mxCell id="MsqOn4zYzABH56GJ3uZA-895" value="" style="endArrow=classic;html=1;rounded=0;entryX=0.5;entryY=0;entryDx=0;entryDy=0;exitX=0.5;exitY=1;exitDx=0;exitDy=0;" edge="1" parent="1" source="MsqOn4zYzABH56GJ3uZA-863" target="gWx_gt3MSwIJaAfkZpsO-6">
          <mxGeometry width="50" height="50" relative="1" as="geometry">
            <mxPoint x="-160" y="310" as="sourcePoint" />
            <mxPoint x="-110" y="260" as="targetPoint" />
          </mxGeometry>
        </mxCell>
        <mxCell id="MsqOn4zYzABH56GJ3uZA-896" value="" style="endArrow=classic;html=1;rounded=0;exitX=0;exitY=0.5;exitDx=0;exitDy=0;entryX=1;entryY=0.5;entryDx=0;entryDy=0;" edge="1" parent="1" source="MsqOn4zYzABH56GJ3uZA-859" target="gWx_gt3MSwIJaAfkZpsO-7">
          <mxGeometry width="50" height="50" relative="1" as="geometry">
            <mxPoint x="-130" y="310" as="sourcePoint" />
            <mxPoint x="-80" y="260" as="targetPoint" />
          </mxGeometry>
        </mxCell>
        <mxCell id="MsqOn4zYzABH56GJ3uZA-897" value="" style="endArrow=classic;html=1;rounded=0;entryX=0;entryY=0.5;entryDx=0;entryDy=0;" edge="1" parent="1" target="MsqOn4zYzABH56GJ3uZA-862">
          <mxGeometry width="50" height="50" relative="1" as="geometry">
            <mxPoint x="40" y="238" as="sourcePoint" />
            <mxPoint x="-50" y="220" as="targetPoint" />
          </mxGeometry>
        </mxCell>
        <mxCell id="MsqOn4zYzABH56GJ3uZA-898" value="" style="endArrow=none;html=1;rounded=0;exitX=1;exitY=0.5;exitDx=0;exitDy=0;" edge="1" parent="1">
          <mxGeometry width="50" height="50" relative="1" as="geometry">
            <mxPoint x="200" y="319" as="sourcePoint" />
            <mxPoint x="280" y="319" as="targetPoint" />
          </mxGeometry>
        </mxCell>
        <mxCell id="MsqOn4zYzABH56GJ3uZA-900" value="" style="endArrow=none;html=1;rounded=0;" edge="1" parent="1">
          <mxGeometry width="50" height="50" relative="1" as="geometry">
            <mxPoint x="280" y="319" as="sourcePoint" />
            <mxPoint x="280" y="238" as="targetPoint" />
          </mxGeometry>
        </mxCell>
        <mxCell id="MsqOn4zYzABH56GJ3uZA-901" value="YES" style="text;strokeColor=none;align=center;fillColor=none;html=1;verticalAlign=middle;whiteSpace=wrap;rounded=0;fontSize=9;" vertex="1" parent="1">
          <mxGeometry x="3.460000000000054" y="58" width="30" height="22" as="geometry" />
        </mxCell>
        <mxCell id="MsqOn4zYzABH56GJ3uZA-902" value="YES" style="text;strokeColor=none;align=center;fillColor=none;html=1;verticalAlign=middle;whiteSpace=wrap;rounded=0;fontSize=9;" vertex="1" parent="1">
          <mxGeometry x="4.460000000000054" y="118" width="30" height="22" as="geometry" />
        </mxCell>
        <mxCell id="MsqOn4zYzABH56GJ3uZA-903" value="YES" style="text;strokeColor=none;align=center;fillColor=none;html=1;verticalAlign=middle;whiteSpace=wrap;rounded=0;fontSize=9;" vertex="1" parent="1">
          <mxGeometry x="4.460000000000054" y="180" width="30" height="22" as="geometry" />
        </mxCell>
        <mxCell id="MsqOn4zYzABH56GJ3uZA-904" value="YES" style="text;strokeColor=none;align=center;fillColor=none;html=1;verticalAlign=middle;whiteSpace=wrap;rounded=0;fontSize=9;" vertex="1" parent="1">
          <mxGeometry x="1.4600000000000541" y="275" width="30" height="22" as="geometry" />
        </mxCell>
        <mxCell id="MsqOn4zYzABH56GJ3uZA-905" value="YES" style="text;strokeColor=none;align=center;fillColor=none;html=1;verticalAlign=middle;whiteSpace=wrap;rounded=0;fontSize=9;" vertex="1" parent="1">
          <mxGeometry x="90.00000000000006" y="299" width="30" height="22" as="geometry" />
        </mxCell>
        <mxCell id="MsqOn4zYzABH56GJ3uZA-906" value="YES" style="text;strokeColor=none;align=center;fillColor=none;html=1;verticalAlign=middle;whiteSpace=wrap;rounded=0;fontSize=9;" vertex="1" parent="1">
          <mxGeometry x="5.684341886080802e-14" y="380" width="30" height="22" as="geometry" />
        </mxCell>
        <mxCell id="MsqOn4zYzABH56GJ3uZA-907" value="YES" style="text;strokeColor=none;align=center;fillColor=none;html=1;verticalAlign=middle;whiteSpace=wrap;rounded=0;fontSize=9;" vertex="1" parent="1">
          <mxGeometry x="50.00000000000006" y="218" width="30" height="22" as="geometry" />
        </mxCell>
        <mxCell id="MsqOn4zYzABH56GJ3uZA-908" value="YES" style="text;strokeColor=none;align=center;fillColor=none;html=1;verticalAlign=middle;whiteSpace=wrap;rounded=0;fontSize=9;" vertex="1" parent="1">
          <mxGeometry x="164.00000000000006" y="258" width="30" height="22" as="geometry" />
        </mxCell>
        <mxCell id="MsqOn4zYzABH56GJ3uZA-909" value="" style="endArrow=classic;html=1;rounded=0;entryX=1;entryY=0.5;entryDx=0;entryDy=0;" edge="1" parent="1" target="MsqOn4zYzABH56GJ3uZA-862">
          <mxGeometry width="50" height="50" relative="1" as="geometry">
            <mxPoint x="280" y="240" as="sourcePoint" />
            <mxPoint x="370" y="240" as="targetPoint" />
          </mxGeometry>
        </mxCell>
        <mxCell id="MsqOn4zYzABH56GJ3uZA-910" value="NO" style="text;strokeColor=none;align=center;fillColor=none;html=1;verticalAlign=middle;whiteSpace=wrap;rounded=0;fontSize=9;" vertex="1" parent="1">
          <mxGeometry x="231.00000000000006" y="291" width="60" height="30" as="geometry" />
        </mxCell>
        <mxCell id="MsqOn4zYzABH56GJ3uZA-911" value="" style="endArrow=classic;html=1;rounded=0;entryX=1;entryY=0.5;entryDx=0;entryDy=0;" edge="1" parent="1" target="MsqOn4zYzABH56GJ3uZA-866">
          <mxGeometry width="50" height="50" relative="1" as="geometry">
            <mxPoint x="100" y="960" as="sourcePoint" />
            <mxPoint x="310" y="990" as="targetPoint" />
          </mxGeometry>
        </mxCell>
        <mxCell id="MsqOn4zYzABH56GJ3uZA-912" value="YES" style="text;strokeColor=none;align=center;fillColor=none;html=1;verticalAlign=middle;whiteSpace=wrap;rounded=0;fontSize=9;" vertex="1" parent="1">
          <mxGeometry x="-331.99999999999994" y="380" width="30" height="22" as="geometry" />
        </mxCell>
        <mxCell id="MsqOn4zYzABH56GJ3uZA-913" value="YES" style="text;strokeColor=none;align=center;fillColor=none;html=1;verticalAlign=middle;whiteSpace=wrap;rounded=0;fontSize=9;" vertex="1" parent="1">
          <mxGeometry x="-670" y="380" width="30" height="22" as="geometry" />
        </mxCell>
        <mxCell id="MsqOn4zYzABH56GJ3uZA-914" value="YES" style="text;strokeColor=none;align=center;fillColor=none;html=1;verticalAlign=middle;whiteSpace=wrap;rounded=0;fontSize=9;" vertex="1" parent="1">
          <mxGeometry x="346.00000000000006" y="380" width="30" height="22" as="geometry" />
        </mxCell>
        <mxCell id="MsqOn4zYzABH56GJ3uZA-915" value="YES" style="text;strokeColor=none;align=center;fillColor=none;html=1;verticalAlign=middle;whiteSpace=wrap;rounded=0;fontSize=9;" vertex="1" parent="1">
          <mxGeometry x="683" y="380" width="30" height="22" as="geometry" />
        </mxCell>
        <mxCell id="MsqOn4zYzABH56GJ3uZA-916" value="" style="endArrow=classic;html=1;rounded=0;entryX=0;entryY=0.5;entryDx=0;entryDy=0;" edge="1" parent="1" target="MsqOn4zYzABH56GJ3uZA-378">
          <mxGeometry width="50" height="50" relative="1" as="geometry">
            <mxPoint x="513" y="558" as="sourcePoint" />
            <mxPoint x="580" y="460" as="targetPoint" />
          </mxGeometry>
        </mxCell>
        <mxCell id="MsqOn4zYzABH56GJ3uZA-917" value="" style="endArrow=classic;html=1;rounded=0;entryX=0;entryY=0.5;entryDx=0;entryDy=0;" edge="1" parent="1">
          <mxGeometry width="50" height="50" relative="1" as="geometry">
            <mxPoint x="176" y="558.79" as="sourcePoint" />
            <mxPoint x="206" y="558.79" as="targetPoint" />
          </mxGeometry>
        </mxCell>
        <mxCell id="MsqOn4zYzABH56GJ3uZA-918" value="" style="endArrow=classic;html=1;rounded=0;entryX=0;entryY=0.5;entryDx=0;entryDy=0;" edge="1" parent="1">
          <mxGeometry width="50" height="50" relative="1" as="geometry">
            <mxPoint x="-163" y="558" as="sourcePoint" />
            <mxPoint x="-141.54000000000002" y="558.79" as="targetPoint" />
          </mxGeometry>
        </mxCell>
        <mxCell id="MsqOn4zYzABH56GJ3uZA-919" value="" style="endArrow=classic;html=1;rounded=0;entryX=0;entryY=0.5;entryDx=0;entryDy=0;" edge="1" parent="1">
          <mxGeometry width="50" height="50" relative="1" as="geometry">
            <mxPoint x="-503" y="554.79" as="sourcePoint" />
            <mxPoint x="-473" y="554.79" as="targetPoint" />
          </mxGeometry>
        </mxCell>
        <mxCell id="MsqOn4zYzABH56GJ3uZA-920" value="" style="endArrow=classic;html=1;rounded=0;entryX=0;entryY=0.5;entryDx=0;entryDy=0;" edge="1" parent="1">
          <mxGeometry width="50" height="50" relative="1" as="geometry">
            <mxPoint x="-840" y="555.79" as="sourcePoint" />
            <mxPoint x="-810" y="555.79" as="targetPoint" />
          </mxGeometry>
        </mxCell>
        <mxCell id="MsqOn4zYzABH56GJ3uZA-921" value="NO" style="text;strokeColor=none;align=center;fillColor=none;html=1;verticalAlign=middle;whiteSpace=wrap;rounded=0;fontSize=9;" vertex="1" parent="1">
          <mxGeometry x="-505" y="645" width="27" height="25" as="geometry" />
        </mxCell>
        <mxCell id="MsqOn4zYzABH56GJ3uZA-922" value="NO" style="text;strokeColor=none;align=center;fillColor=none;html=1;verticalAlign=middle;whiteSpace=wrap;rounded=0;fontSize=9;" vertex="1" parent="1">
          <mxGeometry x="-183.99999999999994" y="647.75" width="60" height="30" as="geometry" />
        </mxCell>
        <mxCell id="MsqOn4zYzABH56GJ3uZA-923" value="NO" style="text;strokeColor=none;align=center;fillColor=none;html=1;verticalAlign=middle;whiteSpace=wrap;rounded=0;fontSize=9;" vertex="1" parent="1">
          <mxGeometry x="494" y="647.75" width="60" height="30" as="geometry" />
        </mxCell>
        <mxCell id="MsqOn4zYzABH56GJ3uZA-924" value="" style="endArrow=classic;html=1;rounded=0;entryX=1;entryY=0.5;entryDx=0;entryDy=0;" edge="1" parent="1" target="gWx_gt3MSwIJaAfkZpsO-8">
          <mxGeometry width="50" height="50" relative="1" as="geometry">
            <mxPoint x="-520" y="436" as="sourcePoint" />
            <mxPoint x="-520" y="410" as="targetPoint" />
          </mxGeometry>
        </mxCell>
        <mxCell id="MsqOn4zYzABH56GJ3uZA-925" value="" style="endArrow=classic;html=1;rounded=0;entryX=1;entryY=0.5;entryDx=0;entryDy=0;" edge="1" parent="1">
          <mxGeometry width="50" height="50" relative="1" as="geometry">
            <mxPoint x="-183" y="434.7" as="sourcePoint" />
            <mxPoint x="-273" y="434.7" as="targetPoint" />
          </mxGeometry>
        </mxCell>
        <mxCell id="MsqOn4zYzABH56GJ3uZA-926" value="" style="endArrow=classic;html=1;rounded=0;entryX=1;entryY=0.5;entryDx=0;entryDy=0;" edge="1" parent="1">
          <mxGeometry width="50" height="50" relative="1" as="geometry">
            <mxPoint x="158" y="436" as="sourcePoint" />
            <mxPoint x="58" y="435.7" as="targetPoint" />
          </mxGeometry>
        </mxCell>
        <mxCell id="MsqOn4zYzABH56GJ3uZA-927" value="" style="endArrow=classic;html=1;rounded=0;entryX=1;entryY=0.5;entryDx=0;entryDy=0;" edge="1" parent="1">
          <mxGeometry width="50" height="50" relative="1" as="geometry">
            <mxPoint x="496" y="438.7" as="sourcePoint" />
            <mxPoint x="406" y="438.7" as="targetPoint" />
          </mxGeometry>
        </mxCell>
        <mxCell id="MsqOn4zYzABH56GJ3uZA-928" value="" style="endArrow=classic;html=1;rounded=0;entryX=1;entryY=0.5;entryDx=0;entryDy=0;" edge="1" parent="1">
          <mxGeometry width="50" height="50" relative="1" as="geometry">
            <mxPoint x="833" y="436.7" as="sourcePoint" />
            <mxPoint x="743" y="436.7" as="targetPoint" />
          </mxGeometry>
        </mxCell>
      </root>
    </mxGraphModel>
  </diagram>
  <diagram id="iufO7ONIFOi9HviYMDT3" name="Page-2">
    <mxGraphModel dx="1000" dy="590" grid="1" gridSize="3" guides="1" tooltips="1" connect="1" arrows="1" fold="1" page="1" pageScale="1" pageWidth="850" pageHeight="1100" math="0" shadow="0">
      <root>
        <mxCell id="0" />
        <mxCell id="1" parent="0" />
      </root>
    </mxGraphModel>
  </diagram>
</mxfile>
